<?xml version="1.0" encoding="UTF-8" standalone="no"?>
<svg
   xmlns:dc="http://purl.org/dc/elements/1.1/"
   xmlns:cc="http://creativecommons.org/ns#"
   xmlns:rdf="http://www.w3.org/1999/02/22-rdf-syntax-ns#"
   xmlns:svg="http://www.w3.org/2000/svg"
   xmlns="http://www.w3.org/2000/svg"
   xmlns:sodipodi="http://sodipodi.sourceforge.net/DTD/sodipodi-0.dtd"
   xmlns:inkscape="http://www.inkscape.org/namespaces/inkscape"
   version="1.0"
   width="246.37119mm"
   height="134.54062mm"
   id="svg1007"
   sodipodi:docname="frame-dashes2.svg"
   inkscape:version="0.92.2 (5c3e80d, 2017-08-06)">
  <metadata
     id="metadata1011">
    <rdf:RDF>
      <cc:Work
         rdf:about="">
        <dc:format>image/svg+xml</dc:format>
        <dc:type
           rdf:resource="http://purl.org/dc/dcmitype/StillImage" />
        <dc:title></dc:title>
      </cc:Work>
    </rdf:RDF>
  </metadata>
  <sodipodi:namedview
     pagecolor="#ffffff"
     bordercolor="#666666"
     borderopacity="1"
     objecttolerance="10"
     gridtolerance="10"
     guidetolerance="10"
     inkscape:pageopacity="0"
     inkscape:pageshadow="2"
     inkscape:window-width="1680"
     inkscape:window-height="997"
     id="namedview1009"
     showgrid="false"
     inkscape:zoom="1.2887059"
     inkscape:cx="465.58334"
     inkscape:cy="254.24999"
     inkscape:window-x="-8"
     inkscape:window-y="-8"
     inkscape:window-maximized="1"
     inkscape:current-layer="svg1007" />
  <defs
     id="defs1003">
    <pattern
       id="WMFhbasepattern"
       patternUnits="userSpaceOnUse"
       width="6"
       height="6"
       x="0"
       y="0" />
  </defs>
  <path
     style="fill:#fdddaa;fill-rule:evenodd;fill-opacity:1;stroke:none;"
     d="  M 381.96923,1.1200294   L 380.52905,1.4400378   L 379.24888,1.600042   L 378.12874,2.0800546   L 377.64868,2.2400588   L 377.48866,2.7200713   L 377.48866,3.0400797   L 377.48866,3.5200923   L 377.64868,3.8401007   L 378.28876,4.0001049   L 379.4089,4.3201133   L 385.96975,4.3201133   L 387.89,4.6401217   L 390.93039,4.8001259   L 392.37057,4.8001259   L 393.81076,4.6401217   L 394.61086,4.1601091   L 394.9309,3.8401007   L 395.09092,3.5200923   L 394.9309,2.8800755   L 394.77088,2.5600671   L 394.61086,2.2400588   L 394.1308,1.9200504   L 393.01066,1.600042   L 391.89051,1.4400378   L 389.17016,1.1200294   L 381.96923,1.1200294  z    M 227.54933,0.64001679   L 225.94912,0.80002098   L 224.66896,0.96002518   L 224.34892,1.1200294   L 223.86886,1.4400378   L 223.54881,1.9200504   L 223.38879,2.2400588   L 223.06875,2.7200713   L 223.38879,3.0400797   L 223.86886,3.6800965   L 224.66896,4.0001049   L 225.7891,4.3201133   L 226.90925,4.6401217   L 228.82949,4.8001259   L 231.54985,4.9601301   L 234.2702,5.2801385   L 235.8704,5.2801385   L 237.15057,5.1201343   L 238.43073,4.9601301   L 239.55088,4.6401217   L 240.35098,4.1601091   L 240.67102,3.8401007   L 240.99106,3.6800965   L 240.67102,3.2000839   L 240.511,3.0400797   L 240.19096,2.7200713   L 239.23084,2.2400588   L 236.51048,1.600042   L 234.91028,1.1200294   L 232.34995,0.96002518   L 229.14954,0.64001679   L 227.54933,0.64001679  z    M 311.40014,1.600042   L 309.47989,1.7600462   L 307.71966,1.7600462   L 304.83929,2.0800546   L 303.07906,2.2400588   L 301.7989,2.5600671   L 300.83878,2.8800755   L 300.67876,3.0400797   L 300.35871,3.2000839   L 300.67876,3.6800965   L 300.83878,4.0001049   L 301.47886,4.3201133   L 302.599,4.8001259   L 304.03919,4.9601301   L 306.91956,5.1201343   L 310.60003,5.1201343   L 313.48041,5.2801385   L 314.92059,5.1201343   L 316.20076,4.9601301   L 317.00086,4.3201133   L 317.48092,4.1601091   L 317.64094,3.8401007   L 317.64094,3.2000839   L 317.64094,2.7200713   L 317.3209,2.2400588   L 316.84084,2.0800546   L 315.72069,1.7600462   L 314.44053,1.600042   L 311.40014,1.600042  z    M 415.25352,1.7600462   L 412.53317,1.9200504   L 410.61293,1.9200504   L 407.41251,2.2400588   L 405.97233,2.5600671   L 404.53214,2.8800755   L 403.73204,3.2000839   L 403.412,3.5200923   L 403.412,3.8401007   L 403.57202,4.1601091   L 404.2121,4.3201133   L 405.97233,4.9601301   L 408.21262,5.1201343   L 410.93297,5.2801385   L 416.37367,5.1201343   L 418.13389,4.9601301   L 419.41406,4.8001259   L 420.05414,4.3201133   L 420.5342,3.8401007   L 420.21416,3.5200923   L 419.89412,3.0400797   L 418.61396,2.2400588   L 417.81385,1.9200504   L 416.53369,1.7600462   L 415.25352,1.7600462  z    M 179.06308,1.7600462   L 176.18271,1.9200504   L 174.90254,2.2400588   L 173.94242,2.7200713   L 172.9823,3.2000839   L 172.50223,3.8401007   L 172.50223,4.0001049   L 172.50223,4.1601091   L 173.14232,4.6401217   L 174.5825,4.9601301   L 176.50275,5.1201343   L 179.38312,5.6001469   L 185.14386,5.6001469   L 186.58405,5.2801385   L 187.70419,4.9601301   L 188.5043,4.8001259   L 188.66432,4.1601091   L 188.66432,3.5200923   L 188.5043,2.8800755   L 188.34428,2.5600671   L 187.70419,2.2400588   L 186.58405,1.9200504   L 184.18374,1.9200504   L 181.78343,1.7600462   L 179.06308,1.7600462  z    M 209.467,1.7600462   L 208.34685,1.9200504   L 206.26659,2.0800546   L 204.50636,2.2400588   L 202.26607,2.5600671   L 201.14593,2.7200713   L 200.66586,2.8800755   L 200.1858,3.0400797   L 199.86576,3.6800965   L 199.54572,4.1601091   L 199.54572,4.6401217   L 199.70574,4.8001259   L 199.86576,5.1201343   L 200.1858,5.2801385   L 203.22619,5.6001469   L 205.78652,5.6001469   L 208.02681,5.2801385   L 210.2671,5.1201343   L 211.06721,4.8001259   L 211.70729,4.6401217   L 212.34737,4.1601091   L 212.50739,3.6800965   L 212.34737,3.2000839   L 212.02733,2.5600671   L 211.38725,2.0800546   L 210.42712,1.9200504   L 209.467,1.7600462  z    M 158.42042,2.0800546   L 156.66019,2.5600671   L 154.4199,2.2400588   L 150.89945,2.5600671   L 149.45926,2.5600671   L 148.01908,2.8800755   L 146.73891,3.2000839   L 146.41887,3.6800965   L 146.09883,4.0001049   L 146.09883,4.3201133   L 146.09883,4.6401217   L 146.25885,4.9601301   L 146.57889,5.1201343   L 147.53902,5.2801385   L 148.9792,5.6001469   L 151.37951,5.7601511   L 153.13974,5.6001469   L 155.38003,5.7601511   L 160.34067,5.7601511   L 161.62083,5.6001469   L 162.74098,5.1201343   L 163.06102,4.8001259   L 163.22104,4.3201133   L 163.54108,3.8401007   L 163.54108,3.2000839   L 163.22104,2.8800755   L 163.06102,2.7200713   L 162.10089,2.2400588   L 160.98075,2.0800546   L 158.42042,2.0800546  z    M 259.07339,1.7600462   L 256.35304,2.0800546   L 253.31265,2.2400588   L 250.75232,2.8800755   L 248.83207,3.5200923   L 248.35201,3.8401007   L 248.19199,4.1601091   L 248.19199,4.3201133   L 248.35201,4.6401217   L 249.31213,4.9601301   L 250.43228,5.2801385   L 251.87246,5.6001469   L 254.75284,5.7601511   L 256.51306,5.7601511   L 259.55345,5.2801385   L 261.63372,5.1201343   L 263.87401,4.6401217   L 265.79426,4.1601091   L 266.27432,3.8401007   L 266.75438,3.5200923   L 266.9144,3.0400797   L 266.75438,2.7200713   L 266.1143,2.2400588   L 265.15418,1.9200504   L 264.03403,1.7600462   L 259.07339,1.7600462  z    M 128.97662,2.5600671   L 124.97611,2.7200713   L 122.73582,2.8800755   L 121.93572,3.0400797   L 121.61568,3.2000839   L 121.45565,3.8401007   L 121.61568,4.3201133   L 122.25576,4.8001259   L 122.89584,5.1201343   L 124.97611,5.7601511   L 127.69646,5.9201553   L 132.81712,5.9201553   L 134.89739,5.6001469   L 136.01753,5.1201343   L 136.65761,4.8001259   L 136.81763,4.3201133   L 136.81763,4.0001049   L 136.65761,3.8401007   L 135.69749,3.2000839   L 134.2573,2.8800755   L 131.05689,2.5600671   L 128.97662,2.5600671  z    M 278.27587,2.0800546   L 276.9957,2.2400588   L 275.71554,2.5600671   L 275.23548,2.8800755   L 274.91543,3.0400797   L 274.59539,3.5200923   L 274.59539,4.0001049   L 274.59539,4.3201133   L 274.91543,4.8001259   L 275.23548,4.9601301   L 275.71554,5.2801385   L 276.9957,5.7601511   L 278.27587,5.7601511   L 281.31626,5.9201553   L 283.23651,5.7601511   L 285.31678,5.9201553   L 288.03713,5.9201553   L 289.63733,5.7601511   L 290.75748,5.6001469   L 291.23754,5.1201343   L 291.7176,4.8001259   L 291.87762,4.3201133   L 292.03764,4.0001049   L 291.87762,3.5200923   L 291.7176,3.0400797   L 291.23754,2.8800755   L 290.75748,2.5600671   L 289.63733,2.0800546   L 278.27587,2.0800546  z    M 513.82623,1.7600462   L 512.38604,2.0800546   L 509.66569,3.0400797   L 508.38553,3.6800965   L 507.58542,4.1601091   L 507.4254,4.3201133   L 507.4254,4.8001259   L 507.58542,4.9601301   L 508.22551,5.1201343   L 509.34565,5.6001469   L 510.4658,5.7601511   L 513.34617,5.9201553   L 515.9065,5.9201553   L 518.62685,5.7601511   L 519.90701,5.7601511   L 520.70712,5.6001469   L 521.3472,5.1201343   L 521.82726,4.8001259   L 522.1473,4.1601091   L 521.98728,3.5200923   L 521.18718,2.7200713   L 520.70712,2.0800546   L 519.74699,1.9200504   L 517.66672,1.7600462   L 513.82623,1.7600462  z    M 46.886043,1.9200504   L 45.445858,2.2400588   L 44.485734,2.7200713   L 43.845651,3.2000839   L 43.845651,3.6800965   L 43.52561,4.0001049   L 43.845651,4.3201133   L 44.005672,4.8001259   L 44.965796,5.1201343   L 46.245961,5.6001469   L 53.126848,5.6001469   L 54.727054,5.9201553   L 56.807322,6.0801595   L 57.927466,6.0801595   L 58.88759,5.7601511   L 59.687693,5.1201343   L 59.847714,4.8001259   L 60.007735,4.3201133   L 60.007735,3.8401007   L 59.847714,3.5200923   L 59.687693,3.0400797   L 59.207631,2.7200713   L 57.927466,2.2400588   L 56.487281,1.9200504   L 46.886043,1.9200504  z    M 433.01581,2.5600671   L 431.57563,2.7200713   L 430.45548,2.8800755   L 429.65538,3.2000839   L 429.17532,3.5200923   L 429.17532,3.8401007   L 429.17532,4.0001049   L 429.65538,4.3201133   L 431.09557,4.9601301   L 432.21571,5.2801385   L 433.33585,5.7601511   L 436.21623,5.9201553   L 438.77656,5.9201553   L 441.33689,6.0801595   L 443.57717,6.0801595   L 444.85734,5.9201553   L 445.3374,5.7601511   L 445.65744,5.6001469   L 445.97748,4.9601301   L 446.29752,4.1601091   L 445.97748,4.0001049   L 445.97748,3.6800965   L 445.65744,3.5200923   L 445.3374,3.2000839   L 442.77707,2.7200713   L 440.37676,2.5600671   L 433.01581,2.5600671  z    M 459.2592,2.0800546   L 457.65899,2.2400588   L 456.05878,2.5600671   L 454.77862,2.8800755   L 454.45858,3.2000839   L 454.13854,3.6800965   L 453.97851,4.0001049   L 454.13854,4.3201133   L 454.45858,4.8001259   L 454.77862,4.9601301   L 455.89876,5.2801385   L 457.17893,5.2801385   L 460.21932,5.6001469   L 462.13957,5.2801385   L 464.37986,5.7601511   L 467.90031,6.0801595   L 470.78068,6.0801595   L 472.06085,5.7601511   L 472.38089,5.2801385   L 472.54091,4.9601301   L 472.70093,4.3201133   L 472.70093,3.8401007   L 472.54091,3.5200923   L 472.22087,3.0400797   L 471.26074,2.5600671   L 469.98058,2.2400588   L 468.38037,2.0800546   L 459.2592,2.0800546  z    M 29.763836,2.5600671   L 27.683568,2.7200713   L 25.923341,2.8800755   L 24.483156,2.8800755   L 21.922826,3.0400797   L 20.642661,3.5200923   L 19.682537,3.6800965   L 19.202475,4.1601091   L 19.042454,4.3201133   L 18.722413,4.8001259   L 19.042454,4.9601301   L 19.202475,5.2801385   L 20.002578,5.7601511   L 20.802681,6.0801595   L 21.922826,6.0801595   L 24.323135,6.2401637   L 27.683568,6.2401637   L 30.72396,6.0801595   L 31.844105,5.9201553   L 32.964249,5.2801385   L 33.12427,5.1201343   L 33.444311,4.8001259   L 33.444311,4.1601091   L 33.12427,3.6800965   L 32.644208,3.0400797   L 31.844105,2.7200713   L 30.883981,2.5600671   L 29.763836,2.5600671  z    M 357.80612,1.7600462   L 355.56583,2.0800546   L 354.60571,2.2400588   L 353.8056,2.7200713   L 352.68546,3.6800965   L 352.68546,4.0001049   L 352.68546,4.1601091   L 352.84548,4.3201133   L 353.0055,4.6401217   L 353.96562,4.9601301   L 356.68597,5.1201343   L 358.76624,5.1201343   L 360.84651,5.6001469   L 363.72688,6.0801595   L 365.00705,6.2401637   L 366.28721,6.2401637   L 367.24734,6.0801595   L 368.04744,5.7601511   L 368.5275,5.2801385   L 368.84754,4.8001259   L 368.84754,4.3201133   L 368.5275,4.0001049   L 368.20746,3.6800965   L 367.88742,3.2000839   L 366.76727,2.8800755   L 365.16707,2.5600671   L 363.8869,2.2400588   L 361.96666,2.0800546   L 360.04641,1.9200504   L 357.80612,1.7600462  z    M 487.26281,2.7200713   L 485.98264,2.8800755   L 483.74235,3.2000839   L 482.62221,3.6800965   L 481.98212,4.1601091   L 481.98212,4.3201133   L 481.98212,4.6401217   L 482.46219,4.9601301   L 482.94225,5.1201343   L 484.06239,5.6001469   L 486.14266,5.9201553   L 488.70299,6.2401637   L 491.1033,6.4001679   L 493.34359,6.4001679   L 494.14369,6.2401637   L 494.9438,6.0801595   L 495.26384,5.7601511   L 495.42386,5.2801385   L 495.26384,4.8001259   L 494.78377,4.0001049   L 493.98367,3.5200923   L 493.18357,3.2000839   L 491.1033,2.8800755   L 489.02303,2.7200713   L 487.26281,2.7200713  z    M 589.99605,1.7600462   L 587.2757,1.9200504   L 586.31557,2.0800546   L 585.51547,2.2400588   L 584.71537,2.8800755   L 584.07528,3.2000839   L 583.91526,3.8401007   L 584.2353,4.3201133   L 584.87539,4.8001259   L 586.15555,5.2801385   L 589.03592,5.7601511   L 592.07631,5.9201553   L 595.11671,6.0801595   L 597.99708,6.4001679   L 598.9572,6.4001679   L 599.59728,6.0801595   L 599.7573,5.7601511   L 600.07735,4.9601301   L 599.59728,4.3201133   L 599.27724,3.6800965   L 598.63716,3.0400797   L 597.99708,2.7200713   L 596.87693,2.2400588   L 595.59677,2.0800546   L 592.87642,1.7600462   L 589.99605,1.7600462  z    M 664.24562,2.2400588   L 662.48539,2.5600671   L 661.0452,2.8800755   L 659.60502,3.5200923   L 659.28498,3.8401007   L 659.12496,4.1601091   L 659.12496,4.6401217   L 659.28498,4.8001259   L 660.08508,5.2801385   L 661.20523,5.6001469   L 662.96545,5.7601511   L 666.00584,5.9201553   L 667.76607,5.9201553   L 670.3264,6.0801595   L 673.68683,6.4001679   L 677.04727,6.4001679   L 677.84737,6.2401637   L 678.16741,6.0801595   L 678.64747,5.7601511   L 678.80749,5.2801385   L 678.96751,4.8001259   L 678.80749,4.1601091   L 678.64747,3.8401007   L 678.00739,3.5200923   L 676.88725,2.8800755   L 675.44706,2.5600671   L 673.84685,2.2400588   L 664.24562,2.2400588  z    M 77.449983,2.7200713   L 72.169302,2.8800755   L 70.889137,3.0400797   L 70.089034,3.5200923   L 69.608972,3.8401007   L 69.12891,4.1601091   L 68.96889,4.8001259   L 69.288931,5.1201343   L 70.249055,5.6001469   L 73.289447,6.2401637   L 76.329838,6.7201763   L 79.37023,6.7201763   L 81.130457,6.4001679   L 82.570643,6.2401637   L 83.690787,5.9201553   L 84.650911,5.2801385   L 85.290993,4.8001259   L 85.611035,4.1601091   L 85.611035,3.8401007   L 85.290993,3.2000839   L 84.33087,3.0400797   L 82.730663,2.8800755   L 77.449983,2.7200713  z    M 109.45411,3.2000839   L 108.17394,3.5200923   L 106.89378,3.8401007   L 105.77363,4.1601091   L 103.69337,4.0001049   L 100.17291,3.8401007   L 96.972499,3.8401007   L 96.012375,4.0001049   L 95.692334,4.0001049   L 95.532314,4.1601091   L 95.372293,4.9601301   L 95.532314,5.6001469   L 96.012375,5.9201553   L 96.812479,6.2401637   L 97.772602,6.4001679   L 98.892747,6.7201763   L 104.33345,6.7201763   L 107.0538,6.4001679   L 110.25421,5.9201553   L 110.89429,5.7601511   L 111.05431,5.6001469   L 111.21433,5.1201343   L 111.21433,4.8001259   L 111.05431,4.0001049   L 110.89429,3.6800965   L 110.41423,3.2000839   L 109.45411,3.2000839  z    M 329.00241,2.7200713   L 327.88226,2.8800755   L 326.92214,3.2000839   L 326.76212,3.5200923   L 326.6021,3.8401007   L 326.6021,4.3201133   L 326.92214,4.9601301   L 327.72224,5.2801385   L 328.68237,5.7601511   L 330.92265,6.2401637   L 333.80303,6.7201763   L 339.24373,6.7201763   L 341.32399,6.4001679   L 342.44414,6.2401637   L 342.76418,5.9201553   L 343.08422,5.6001469   L 343.08422,5.1201343   L 342.76418,4.9601301   L 341.80406,4.3201133   L 340.36387,4.0001049   L 337.16346,3.5200923   L 335.08319,3.2000839   L 333.32296,3.0400797   L 330.44259,2.7200713   L 329.00241,2.7200713  z    M 545.83035,2.5600671   L 543.43004,2.7200713   L 540.86971,2.7200713   L 538.30938,2.8800755   L 535.58903,3.2000839   L 534.46889,3.5200923   L 533.50877,4.0001049   L 532.38862,4.8001259   L 532.2286,5.1201343   L 532.2286,5.2801385   L 532.2286,5.6001469   L 532.38862,5.9201553   L 533.18872,6.0801595   L 534.30887,6.2401637   L 535.42901,6.4001679   L 537.50928,6.4001679   L 540.22963,6.7201763   L 542.94998,6.8801805   L 545.67033,6.7201763   L 546.9505,6.2401637   L 548.07064,5.9201553   L 548.71073,5.7601511   L 549.03077,5.2801385   L 549.19079,4.9601301   L 549.19079,4.6401217   L 548.87075,3.8401007   L 548.07064,3.0400797   L 547.7506,2.8800755   L 547.11052,2.7200713   L 545.83035,2.5600671  z    M 844.9089,3.0400797   L 842.98866,3.2000839   L 841.22843,3.5200923   L 839.94826,4.0001049   L 839.62822,4.1601091   L 839.62822,4.6401217   L 839.62822,4.9601301   L 840.10828,5.1201343   L 841.86851,5.7601511   L 844.58886,6.0801595   L 847.78927,6.4001679   L 853.87006,6.8801805   L 856.11035,6.8801805   L 857.39051,6.7201763   L 858.03059,6.4001679   L 858.35064,6.0801595   L 858.35064,5.7601511   L 858.35064,5.2801385   L 858.03059,4.3201133   L 857.39051,3.8401007   L 856.91045,3.5200923   L 856.11035,3.2000839   L 854.35012,3.0400797   L 844.9089,3.0400797  z    M 637.84221,2.7200713   L 636.40203,2.8800755   L 635.12186,3.0400797   L 634.6418,3.2000839   L 634.32176,3.6800965   L 634.32176,4.0001049   L 634.6418,4.6401217   L 635.28188,4.9601301   L 636.24201,5.2801385   L 638.64232,6.0801595   L 641.84273,6.7201763   L 645.04314,7.0401847   L 648.08353,7.0401847   L 650.64386,6.8801805   L 651.60399,6.7201763   L 652.08405,6.2401637   L 652.40409,5.9201553   L 652.72413,5.7601511   L 652.72413,5.2801385   L 652.40409,4.9601301   L 651.60399,4.6401217   L 650.32382,4.1601091   L 647.60347,3.6800965   L 645.84325,3.5200923   L 643.60296,3.2000839   L 639.76246,2.8800755   L 637.84221,2.7200713  z    M 6.2408044,2.8800755   L 4.8006188,3.2000839   L 3.6804744,3.5200923   L 1.6002063,3.5200923   L 1.1201444,3.6800965   L 0.96012375,4.0001049   L 0.80010313,4.6401217   L 0.6400825,5.1201343   L 0.6400825,5.7601511   L 0.96012375,6.2401637   L 1.7602269,6.7201763   L 2.7203506,7.0401847   L 4.0005156,7.2001889   L 6.7208663,7.2001889   L 7.2009282,6.8801805   L 7.68099,6.7201763   L 8.0010313,6.0801595   L 8.3210725,5.6001469   L 8.6411138,4.9601301   L 8.3210725,4.0001049   L 8.1610519,3.5200923   L 7.8410107,3.0400797   L 7.0409075,2.8800755   L 6.2408044,2.8800755  z    M 690.96906,3.6800965   L 689.20883,3.8401007   L 687.76865,4.0001049   L 686.80853,4.3201133   L 686.32846,4.8001259   L 686.16844,4.9601301   L 686.32846,5.2801385   L 686.80853,5.7601511   L 688.24871,6.2401637   L 690.80904,6.7201763   L 693.52939,7.0401847   L 696.40976,7.2001889   L 701.21038,7.2001889   L 702.33053,7.0401847   L 702.81059,6.7201763   L 703.29065,6.4001679   L 703.45067,6.0801595   L 703.29065,5.9201553   L 702.49055,5.2801385   L 701.3704,4.8001259   L 698.33001,4.0001049   L 696.40976,3.8401007   L 694.16947,3.8401007   L 690.96906,3.6800965  z    M 573.99398,3.5200923   L 561.35235,3.6800965   L 560.07219,3.8401007   L 558.95205,4.0001049   L 557.8319,4.3201133   L 557.19182,4.8001259   L 557.0318,4.9601301   L 556.87178,5.2801385   L 557.0318,5.6001469   L 557.19182,5.7601511   L 558.15194,6.2401637   L 559.75215,6.8801805   L 562.63252,7.3601931   L 569.19337,7.3601931   L 572.23376,7.0401847   L 573.83396,6.8801805   L 574.79409,6.4001679   L 575.27415,6.2401637   L 575.43417,5.9201553   L 575.59419,4.9601301   L 575.43417,4.1601091   L 574.79409,3.6800965   L 574.47405,3.5200923   L 573.99398,3.5200923  z    M 614.15916,2.7200713   L 613.03902,2.8800755   L 612.07889,3.0400797   L 611.11877,3.6800965   L 610.47869,4.3201133   L 609.99862,4.9601301   L 610.31867,5.2801385   L 610.63871,5.7601511   L 611.43881,5.9201553   L 612.39893,6.0801595   L 614.15916,6.2401637   L 616.71949,6.4001679   L 619.75988,7.0401847   L 621.36009,7.2001889   L 622.80028,7.3601931   L 624.08044,7.2001889   L 624.40048,7.0401847   L 624.88054,6.8801805   L 625.20058,6.2401637   L 625.52063,5.9201553   L 625.52063,5.2801385   L 625.52063,4.9601301   L 625.36061,4.6401217   L 625.04056,4.3201133   L 624.08044,3.8401007   L 622.9603,3.5200923   L 621.68013,3.2000839   L 619.75988,3.0400797   L 617.83964,2.7200713   L 614.15916,2.7200713  z    M 722.97319,3.0400797   L 720.41286,3.2000839   L 718.17257,3.5200923   L 715.93228,3.6800965   L 714.65211,4.0001049   L 713.53197,4.3201133   L 712.73187,4.8001259   L 712.57185,4.9601301   L 712.57185,5.2801385   L 712.73187,5.6001469   L 713.05191,5.9201553   L 714.65211,6.4001679   L 715.61224,6.8801805   L 716.8924,7.0401847   L 719.45273,7.3601931   L 722.17308,7.3601931   L 724.57339,7.2001889   L 726.1736,6.8801805   L 727.13372,6.4001679   L 728.09385,5.9201553   L 728.57391,5.2801385   L 728.73393,5.1201343   L 729.05397,4.8001259   L 728.73393,4.6401217   L 728.57391,4.1601091   L 727.61378,3.6800965   L 726.49364,3.5200923   L 725.3735,3.2000839   L 722.97319,3.0400797  z    M 768.41904,3.0400797   L 767.13888,3.2000839   L 765.69869,3.6800965   L 764.73857,4.0001049   L 763.77845,4.8001259   L 763.4584,5.2801385   L 763.4584,5.6001469   L 763.61843,5.7601511   L 764.25851,6.0801595   L 764.89859,6.4001679   L 765.85871,6.7201763   L 767.77896,6.8801805   L 770.65933,7.2001889   L 773.69972,7.3601931   L 776.5801,7.2001889   L 778.02028,7.2001889   L 779.30045,6.8801805   L 779.94053,6.7201763   L 780.26057,6.4001679   L 780.26057,6.0801595   L 780.58061,5.7601511   L 780.10055,4.9601301   L 779.78051,4.1601091   L 779.30045,3.8401007   L 778.82039,3.6800965   L 777.70024,3.2000839   L 775.13991,3.2000839   L 772.7396,3.0400797   L 768.41904,3.0400797  z    M 801.70333,2.8800755   L 798.82296,3.0400797   L 796.7427,3.5200923   L 795.30251,3.6800965   L 792.58216,4.0001049   L 791.30199,4.3201133   L 790.18185,4.8001259   L 789.54177,5.2801385   L 789.38175,5.7601511   L 789.22173,5.9201553   L 789.38175,6.2401637   L 789.54177,6.7201763   L 790.50189,7.0401847   L 791.46201,7.2001889   L 792.74218,7.3601931   L 795.30251,7.2001889   L 798.82296,7.2001889   L 802.02338,7.0401847   L 803.62358,6.7201763   L 804.74373,6.2401637   L 805.38381,5.9201553   L 805.54383,5.6001469   L 805.70385,5.1201343   L 805.70385,4.6401217   L 805.54383,4.0001049   L 805.38381,3.6800965   L 804.90375,3.2000839   L 804.42369,3.0400797   L 803.30354,2.8800755   L 801.70333,2.8800755  z    M 741.6956,3.2000839   L 739.77535,3.6800965   L 738.49519,3.8401007   L 737.8551,4.1601091   L 737.69508,4.6401217   L 737.8551,4.8001259   L 738.33517,5.1201343   L 738.97525,5.7601511   L 740.41543,6.0801595   L 742.01564,6.4001679   L 744.57597,7.0401847   L 747.1363,7.3601931   L 749.85665,7.6802014   L 752.41698,7.3601931   L 753.21708,7.2001889   L 753.85717,6.8801805   L 754.33723,6.2401637   L 754.81729,5.7601511   L 754.97731,5.1201343   L 754.81729,4.6401217   L 754.17721,4.1601091   L 753.21708,4.0001049   L 747.61636,3.5200923   L 744.57597,3.2000839   L 741.6956,3.2000839  z    M 818.34548,3.2000839   L 817.22534,3.5200923   L 816.10519,3.6800965   L 814.82503,4.0001049   L 813.8649,4.3201133   L 813.22482,4.9601301   L 813.0648,5.1201343   L 813.22482,5.6001469   L 813.38484,5.7601511   L 813.8649,6.0801595   L 815.46511,6.8801805   L 816.74527,7.0401847   L 818.18546,7.2001889   L 821.22585,7.3601931   L 826.98659,7.3601931   L 830.18701,7.6802014   L 831.94723,7.3601931   L 832.74734,7.2001889   L 833.2274,6.8801805   L 833.54744,6.0801595   L 833.54744,5.1201343   L 833.2274,4.3201133   L 832.90736,4.1601091   L 832.42729,4.0001049   L 829.06686,3.5200923   L 825.38639,3.2000839   L 818.34548,3.2000839  z    M 904.43658,3.2000839   L 901.87625,3.5200923   L 900.27604,3.8401007   L 898.51581,4.0001049   L 896.43554,4.3201133   L 895.3154,4.6401217   L 894.35528,4.9601301   L 893.55517,5.6001469   L 893.23513,6.0801595   L 893.23513,6.4001679   L 893.39515,6.8801805   L 893.55517,7.0401847   L 893.87521,7.3601931   L 895.15538,7.6802014   L 896.27552,7.8402056   L 898.83585,7.8402056   L 900.43606,7.6802014   L 902.35631,7.6802014   L 904.75662,7.3601931   L 905.87676,7.0401847   L 906.83689,6.7201763   L 907.15693,6.2401637   L 907.47697,5.9201553   L 907.63699,5.6001469   L 907.63699,4.9601301   L 907.63699,4.6401217   L 907.15693,4.0001049   L 906.99691,3.8401007   L 906.51684,3.6800965   L 905.55672,3.2000839   L 904.43658,3.2000839  z    M 877.23307,3.6800965   L 873.87264,4.0001049   L 870.83224,4.3201133   L 868.75198,4.3201133   L 867.63183,4.6401217   L 866.51169,4.9601301   L 865.55156,5.2801385   L 865.39154,5.6001469   L 865.23152,5.7601511   L 865.23152,6.0801595   L 865.23152,6.4001679   L 865.55156,7.0401847   L 866.03163,7.3601931   L 866.99175,8.0002098   L 868.27191,8.160214   L 869.55208,8.3202182   L 870.83224,8.3202182   L 875.9529,8.0002098   L 879.15332,8.0002098   L 880.91354,7.8402056   L 882.35373,7.2001889   L 883.31385,6.7201763   L 884.27398,5.7601511   L 884.75404,5.2801385   L 884.75404,4.8001259   L 884.27398,4.3201133   L 883.47387,4.0001049   L 882.03369,3.6800965   L 877.23307,3.6800965  z    M 923.15899,3.5200923   L 921.23874,3.6800965   L 919.63854,3.8401007   L 918.83843,4.3201133   L 918.19835,4.8001259   L 917.87831,5.2801385   L 917.87831,5.9201553   L 918.03833,6.2401637   L 918.51839,6.8801805   L 919.15847,7.2001889   L 919.95858,7.3601931   L 921.39876,7.8402056   L 922.99897,8.0002098   L 924.43915,8.6402266   L 925.23926,8.8002308   L 925.5593,8.960235   L 925.87934,8.8002308   L 926.3594,8.3202182   L 926.67944,8.0002098   L 926.83946,7.3601931   L 927.1595,6.8801805   L 927.1595,6.2401637   L 926.83946,5.7601511   L 926.67944,5.1201343   L 926.3594,4.6401217   L 925.71932,4.0001049   L 924.7592,3.8401007   L 924.11911,3.6800965   L 923.15899,3.5200923  z    M 924.59917,15.040395   L 924.11911,15.520407   L 923.47903,16.480432   L 923.31901,17.440457   L 923.31901,18.560487   L 923.47903,21.120554   L 924.11911,23.520617   L 924.43915,25.760676   L 924.59917,28.000734   L 924.7592,29.280768   L 925.23926,30.400797   L 925.5593,31.040814   L 925.87934,31.360823   L 926.19938,31.360823   L 926.51942,31.040814   L 926.83946,30.720806   L 927.63957,29.600776   L 928.27965,28.320743   L 928.59969,26.880705   L 928.59969,25.440667   L 928.59969,23.840625   L 928.43967,20.640541   L 927.79959,18.080474   L 927.1595,16.640436   L 926.51942,16.00042   L 925.87934,15.360403   L 925.39928,15.040395   L 924.59917,15.040395  z    M 3.6804744,16.480432   L 2.8803713,16.640436   L 2.2402888,17.120449   L 2.0802681,17.440457   L 1.9202475,18.080474   L 1.9202475,21.120554   L 1.9202475,24.160634   L 2.56033,30.080789   L 2.7203506,32.480852   L 2.8803713,33.600881   L 3.0403919,34.560907   L 3.5204538,35.040919   L 3.6804744,35.040919   L 3.840495,34.880915   L 4.3205569,34.400902   L 5.12066,32.80086   L 5.6007219,31.520827   L 5.7607425,30.080789   L 5.9207631,27.040709   L 5.9207631,24.160634   L 5.7607425,21.280558   L 5.6007219,19.040499   L 5.12066,17.600462   L 4.9606394,17.120449   L 4.6405981,16.960445   L 3.6804744,16.480432  z    M 926.83946,41.441087   L 926.51942,41.761095   L 925.87934,42.081104   L 925.5593,42.721121   L 925.23926,43.361137   L 924.7592,45.281188   L 924.43915,47.841255   L 924.43915,50.241318   L 924.43915,52.641381   L 924.7592,54.561431   L 925.23926,55.201448   L 925.39928,55.521456   L 925.87934,55.68146   L 926.3594,55.68146   L 926.83946,55.201448   L 927.31953,54.401427   L 927.63957,53.441402   L 927.79959,52.321372   L 928.27965,50.241318   L 928.43967,48.481272   L 928.43967,46.88123   L 928.43967,45.281188   L 928.27965,44.001154   L 928.11963,42.721121   L 927.47955,41.761095   L 927.31953,41.441087   L 926.83946,41.441087  z    M 3.2004125,43.041129   L 2.8803713,43.201133   L 2.56033,43.361137   L 2.0802681,43.84115   L 1.9202475,44.321163   L 1.7602269,45.441192   L 1.7602269,47.041234   L 1.9202475,49.921309   L 2.0802681,52.001364   L 2.0802681,53.601406   L 2.2402888,56.481481   L 2.56033,57.921519   L 2.8803713,59.201553   L 3.5204538,59.84157   L 3.840495,60.321582   L 4.3205569,60.321582   L 4.8006188,59.84157   L 5.12066,58.881544   L 5.2806806,57.601511   L 5.6007219,55.841465   L 5.2806806,52.481377   L 5.2806806,50.241318   L 5.2806806,48.481272   L 5.12066,46.081209   L 4.9606394,44.961179   L 4.6405981,43.84115   L 4.0005156,43.201133   L 3.840495,43.041129   L 3.2004125,43.041129  z    M 926.83946,64.961704   L 926.19938,65.121708   L 925.5593,65.601721   L 925.23926,66.561746   L 924.59917,67.681775   L 924.11911,70.561851   L 923.63905,73.921939   L 923.63905,77.282027   L 923.95909,80.482111   L 924.27913,82.082153   L 924.59917,83.202182   L 925.23926,84.162208   L 925.71932,84.482216   L 926.19938,84.64222   L 926.3594,84.482216   L 926.67944,84.322212   L 926.83946,83.682195   L 927.31953,82.402161   L 927.47955,80.962124   L 927.63957,77.76204   L 927.79959,75.841989   L 928.27965,73.281922   L 928.59969,69.76183   L 928.59969,68.001784   L 928.27965,66.561746   L 928.11963,65.921729   L 927.79959,65.441717   L 927.31953,65.121708   L 926.83946,64.961704  z    M 4.0005156,68.801805   L 3.5204538,68.961809   L 3.0403919,69.921834   L 2.8803713,71.041863   L 2.7203506,72.961914   L 2.56033,78.242052   L 2.7203506,80.962124   L 2.8803713,83.362187   L 3.5204538,85.122233   L 3.6804744,85.442241   L 4.0005156,85.76225   L 4.3205569,85.602245   L 4.6405981,85.442241   L 5.12066,84.482216   L 5.2806806,83.202182   L 5.7607425,81.60214   L 5.9207631,78.402056   L 5.9207631,76.802014   L 6.0807838,74.081943   L 6.0807838,72.80191   L 5.9207631,71.521876   L 5.6007219,70.561851   L 4.8006188,69.281817   L 4.3205569,68.961809   L 4.0005156,68.801805  z    M 926.3594,90.882384   L 925.87934,91.202392   L 925.5593,91.522401   L 925.39928,92.162417   L 925.23926,93.282447   L 925.23926,95.68251   L 925.5593,101.76267   L 925.71932,104.96275   L 926.3594,107.68282   L 926.83946,109.28287   L 927.1595,109.92288   L 927.47955,109.92288   L 927.79959,109.76288   L 928.11963,109.28287   L 928.59969,108.16284   L 928.75971,106.40279   L 928.91973,104.64274   L 928.91973,100.80264   L 928.91973,98.402581   L 928.91973,95.042493   L 928.75971,93.282447   L 928.59969,92.64243   L 928.27965,92.162417   L 927.63957,91.522401   L 926.67944,90.882384   L 926.3594,90.882384  z    M 4.1605363,94.242472   L 4.0005156,94.402476   L 3.6804744,94.882489   L 3.2004125,95.842514   L 3.2004125,98.082573   L 3.2004125,99.842619   L 3.2004125,105.76277   L 3.5204538,108.80285   L 3.840495,111.52293   L 4.0005156,112.00294   L 4.3205569,112.16294   L 4.6405981,111.84293   L 4.9606394,111.36292   L 5.7607425,110.08289   L 5.9207631,109.28287   L 6.400825,106.7228   L 6.7208663,104.00273   L 6.7208663,101.92267   L 6.8808869,99.042598   L 6.7208663,97.762564   L 6.400825,96.482531   L 6.0807838,95.362501   L 5.6007219,94.56248   L 4.9606394,94.402476   L 4.6405981,94.242472   L 4.1605363,94.242472  z    M 925.87934,115.84304   L 925.23926,116.16305   L 924.7592,116.64306   L 924.59917,117.44308   L 924.43915,119.20313   L 924.59917,122.56321   L 924.59917,128.32337   L 924.59917,131.36345   L 925.07924,132.64348   L 925.23926,133.92351   L 925.87934,135.52355   L 926.3594,136.00357   L 926.51942,136.16357   L 927.1595,136.16357   L 927.63957,135.68356   L 928.11963,134.56353   L 928.43967,133.4435   L 928.59969,132.00346   L 928.75971,131.04344   L 928.75971,123.84325   L 928.59969,120.32316   L 928.11963,116.96307   L 927.79959,116.48306   L 927.63957,116.16305   L 926.83946,115.84304   L 925.87934,115.84304  z    M 3.5204538,120.48316   L 2.8803713,120.64316   L 2.56033,120.80317   L 2.0802681,121.12318   L 1.9202475,121.60319   L 1.7602269,122.56321   L 1.6002063,123.84325   L 1.7602269,125.44329   L 2.2402888,128.48337   L 2.7203506,130.56342   L 2.7203506,132.48347   L 2.8803713,134.72353   L 3.0403919,135.84356   L 3.5204538,136.48358   L 3.6804744,136.64358   L 4.0005156,136.64358   L 4.3205569,136.48358   L 4.8006188,136.00357   L 5.2806806,135.20355   L 5.7607425,134.40353   L 5.9207631,132.96349   L 6.0807838,131.84346   L 5.9207631,129.28339   L 5.7607425,127.36334   L 5.7607425,125.44329   L 5.6007219,124.16326   L 5.12066,122.88322   L 4.8006188,121.76319   L 4.1605363,120.80317   L 3.840495,120.64316   L 3.5204538,120.48316  z    M 927.31953,143.36376   L 926.83946,143.52376   L 926.3594,144.00378   L 926.19938,144.48379   L 925.71932,145.28381   L 925.39928,147.36387   L 925.07924,150.08394   L 924.7592,152.96401   L 924.7592,155.68408   L 925.23926,157.92414   L 925.39928,158.72416   L 925.71932,159.36418   L 926.19938,159.68419   L 926.51942,159.68419   L 927.1595,159.36418   L 927.63957,158.40415   L 927.79959,157.44413   L 928.27965,156.1641   L 928.43967,153.60403   L 928.59969,152.00399   L 928.75971,149.92393   L 928.59969,146.40384   L 928.43967,144.9638   L 927.79959,143.84377   L 927.63957,143.36376   L 927.31953,143.36376  z    M 2.56033,146.24384   L 2.0802681,146.40384   L 1.6002063,146.56384   L 1.4401856,147.04386   L 0.96012375,147.52387   L 0.80010313,148.96391   L 0.80010313,150.40395   L 1.1201444,153.60403   L 1.4401856,155.68408   L 1.6002063,157.44413   L 1.9202475,159.68419   L 2.0802681,160.80422   L 2.7203506,161.92425   L 3.2004125,162.56426   L 3.5204538,162.72427   L 3.840495,162.72427   L 4.1605363,162.56426   L 4.6405981,162.40426   L 4.9606394,161.60424   L 5.12066,160.64421   L 5.12066,159.52418   L 4.9606394,157.12412   L 4.6405981,155.52408   L 4.8006188,153.44402   L 4.6405981,150.24394   L 4.3205569,148.6439   L 4.0005156,147.52387   L 3.840495,147.04386   L 3.5204538,146.56384   L 3.0403919,146.40384   L 2.56033,146.24384  z    M 926.83946,168.96443   L 926.3594,169.12444   L 925.71932,169.76445   L 925.5593,170.56447   L 925.23926,171.6845   L 925.07924,172.96454   L 924.7592,176.00462   L 925.07924,179.2047   L 925.39928,182.08478   L 925.71932,184.48484   L 926.3594,186.08488   L 926.51942,186.24489   L 926.67944,186.40489   L 927.1595,186.24489   L 927.31953,185.76487   L 927.63957,184.96485   L 928.11963,183.52481   L 928.59969,180.80474   L 928.75971,179.3647   L 928.91973,177.12465   L 928.91973,174.08457   L 928.91973,172.64453   L 928.75971,171.04449   L 928.27965,169.92446   L 928.11963,169.60445   L 927.63957,169.12444   L 926.83946,168.96443  z    M 4.9606394,171.20449   L 4.8006188,171.5245   L 4.1605363,172.00451   L 3.6804744,172.96454   L 3.0403919,175.68461   L 2.7203506,177.28465   L 2.7203506,179.52471   L 2.56033,182.56479   L 2.56033,184.32483   L 2.7203506,185.60487   L 3.0403919,186.7249   L 3.5204538,187.68492   L 4.1605363,188.32494   L 4.3205569,188.48494   L 4.8006188,188.32494   L 5.12066,188.00493   L 5.2806806,187.20491   L 5.7607425,185.12486   L 5.9207631,183.0448   L 6.0807838,180.48473   L 6.400825,177.76466   L 6.2408044,174.88459   L 6.0807838,173.60455   L 5.7607425,172.32452   L 5.6007219,171.84451   L 5.12066,171.5245   L 4.9606394,171.20449  z    M 925.71932,194.5651   L 925.07924,194.88511   L 924.59917,195.68513   L 924.43915,196.64516   L 924.43915,197.92519   L 924.43915,199.36523   L 924.7592,202.0853   L 925.07924,204.00535   L 925.39928,206.56542   L 925.87934,209.12549   L 926.19938,210.08551   L 926.83946,211.36554   L 927.31953,212.00556   L 927.63957,212.16556   L 928.11963,212.16556   L 928.27965,211.52555   L 928.43967,210.08551   L 928.43967,207.68545   L 928.59969,204.48536   L 928.43967,201.12528   L 928.11963,198.0852   L 927.63957,196.80516   L 927.31953,195.68513   L 926.83946,194.88511   L 926.3594,194.5651   L 925.71932,194.5651  z    M 4.0005156,196.96517   L 3.840495,197.28517   L 3.5204538,197.44518   L 3.0403919,198.4052   L 2.7203506,199.68524   L 2.0802681,202.72532   L 2.0802681,204.64537   L 1.9202475,206.88543   L 1.9202475,209.7655   L 1.9202475,211.20554   L 2.0802681,212.48557   L 2.7203506,213.76561   L 2.8803713,214.08562   L 3.2004125,214.24562   L 3.840495,214.40562   L 4.3205569,214.24562   L 4.8006188,213.4456   L 5.12066,212.80558   L 5.6007219,210.24551   L 5.7607425,207.36544   L 5.7607425,204.16536   L 5.6007219,201.44528   L 5.12066,199.04522   L 4.9606394,198.0852   L 4.8006188,197.76519   L 4.3205569,197.28517   L 4.0005156,196.96517  z    M 926.19938,220.48578   L 925.87934,220.9658   L 925.39928,221.76582   L 925.07924,222.88585   L 924.7592,224.16588   L 924.7592,226.56594   L 924.7592,228.806   L 925.07924,231.36607   L 925.39928,233.60613   L 925.5593,234.88616   L 925.87934,236.00619   L 926.3594,236.80621   L 926.67944,236.96622   L 926.83946,236.96622   L 927.31953,236.80621   L 927.47955,236.4862   L 928.27965,234.88616   L 928.43967,233.76613   L 928.75971,232.6461   L 928.91973,229.92603   L 928.91973,227.20596   L 928.75971,224.8059   L 928.43967,223.36586   L 928.11963,222.40583   L 927.63957,221.44581   L 927.1595,220.64579   L 926.67944,220.48578   L 926.19938,220.48578  z    M 4.6405981,222.40583   L 4.1605363,222.56584   L 3.6804744,222.72584   L 3.2004125,223.20585   L 2.8803713,223.52586   L 2.56033,224.64589   L 2.2402888,225.92593   L 2.0802681,227.52597   L 2.0802681,230.56605   L 2.0802681,232.80611   L 2.2402888,234.56615   L 2.8803713,237.60623   L 3.5204538,240.1663   L 3.840495,240.96632   L 4.0005156,240.80632   L 4.6405981,239.36628   L 4.9606394,237.92624   L 5.2806806,234.72616   L 5.7607425,228.48599   L 5.9207631,226.56594   L 6.0807838,225.44591   L 5.9207631,224.16588   L 5.7607425,223.20585   L 5.2806806,222.56584   L 4.9606394,222.40583   L 4.6405981,222.40583  z    M 926.67944,246.40646   L 926.19938,246.72647   L 925.5593,247.04648   L 925.39928,247.8465   L 925.23926,248.64652   L 925.07924,250.08656   L 925.07924,253.12664   L 925.39928,256.16672   L 925.71932,259.2068   L 926.19938,261.60686   L 926.51942,262.8869   L 926.67944,263.0469   L 927.1595,262.56689   L 927.63957,260.48683   L 928.11963,257.76676   L 928.27965,256.32672   L 928.43967,254.24667   L 928.43967,251.36659   L 928.43967,249.92656   L 928.27965,248.64652   L 927.79959,247.52649   L 927.31953,246.88648   L 926.67944,246.40646  z    M 4.3205569,248.64652   L 4.0005156,249.12653   L 3.0403919,250.24656   L 2.7203506,251.36659   L 2.56033,252.48662   L 2.56033,253.76666   L 2.56033,255.3667   L 2.8803713,258.24677   L 3.0403919,260.48683   L 3.5204538,263.0469   L 3.6804744,264.80695   L 4.0005156,265.44696   L 4.1605363,265.60697   L 4.9606394,265.92698   L 5.9207631,265.92698   L 6.2408044,265.76697   L 6.400825,265.44696   L 6.7208663,264.80695   L 6.8808869,262.40688   L 6.8808869,259.68681   L 6.7208663,254.40667   L 6.400825,252.16661   L 6.0807838,251.04658   L 5.7607425,249.92656   L 5.2806806,248.96653   L 4.9606394,248.64652   L 4.3205569,248.64652  z    M 4.6405981,276.64726   L 4.1605363,276.80726   L 3.840495,277.12727   L 3.5204538,277.76729   L 2.8803713,279.52733   L 2.2402888,281.92739   L 2.0802681,284.16745   L 2.0802681,286.40751   L 2.2402888,288.32756   L 2.56033,288.80758   L 2.8803713,289.28759   L 3.5204538,289.44759   L 3.840495,289.28759   L 4.1605363,288.80758   L 4.6405981,288.32756   L 5.12066,286.56752   L 5.7607425,284.32746   L 5.9207631,282.0874   L 5.9207631,279.84734   L 5.6007219,277.92729   L 5.2806806,277.12727   L 4.9606394,276.80726   L 4.6405981,276.64726  z    M 926.67944,270.24709   L 926.51942,270.7271   L 926.19938,271.20711   L 925.71932,272.64715   L 925.5593,274.08719   L 925.5593,275.68723   L 925.5593,277.12727   L 925.87934,280.16735   L 926.19938,283.04742   L 926.19938,285.28748   L 926.3594,288.16756   L 926.67944,289.28759   L 926.83946,289.6076   L 927.1595,290.08761   L 927.63957,290.08761   L 928.11963,289.6076   L 928.59969,289.28759   L 929.23977,288.16756   L 929.55981,286.72752   L 929.71983,285.28748   L 929.87986,283.84745   L 929.87986,280.48736   L 929.71983,277.92729   L 929.39979,276.00724   L 928.59969,272.80716   L 928.11963,271.52712   L 927.47955,270.5671   L 927.1595,270.24709   L 926.67944,270.24709  z    M 926.3594,296.96779   L 925.71932,297.4478   L 925.39928,297.92781   L 925.23926,298.88784   L 925.07924,300.32788   L 925.07924,301.60791   L 925.23926,304.80799   L 925.5593,308.16808   L 926.19938,311.36817   L 926.67944,313.92823   L 927.31953,315.20827   L 927.47955,315.36827   L 927.63957,315.36827   L 928.11963,314.88826   L 928.43967,313.76823   L 928.59969,312.00818   L 928.75971,308.8081   L 928.75971,306.72805   L 928.75971,304.64799   L 928.75971,301.60791   L 928.59969,300.00787   L 928.27965,298.72784   L 927.79959,297.76781   L 927.47955,297.4478   L 927.1595,296.96779   L 926.3594,296.96779  z    M 4.0005156,300.48788   L 3.2004125,300.64789   L 2.8803713,300.96789   L 2.7203506,301.60791   L 2.56033,302.72794   L 2.2402888,304.968   L 2.2402888,307.36806   L 2.2402888,310.24814   L 2.56033,313.12821   L 2.7203506,314.24824   L 3.0403919,315.36827   L 3.840495,316.3283   L 4.1605363,316.64831   L 4.6405981,316.64831   L 4.9606394,316.16829   L 5.2806806,314.40825   L 5.7607425,312.4882   L 5.9207631,309.92813   L 6.0807838,307.04805   L 5.9207631,304.00797   L 5.7607425,302.72794   L 5.6007219,301.44791   L 5.12066,300.80789   L 4.6405981,300.64789   L 4.0005156,300.48788  z    M 926.51942,323.84849   L 926.19938,324.1685   L 925.5593,324.48851   L 925.23926,324.64852   L 925.07924,325.28853   L 924.7592,326.40856   L 924.7592,327.8486   L 925.07924,329.44864   L 925.39928,332.80873   L 925.71932,335.04879   L 925.87934,336.96884   L 926.3594,338.72888   L 926.51942,339.2089   L 926.83946,339.52891   L 927.63957,339.2089   L 928.27965,338.72888   L 928.75971,337.76886   L 929.23977,336.64883   L 929.39979,335.5288   L 929.39979,334.08876   L 929.39979,331.6887   L 928.91973,329.60865   L 928.75971,327.6886   L 928.59969,326.56857   L 928.43967,325.60854   L 928.11963,324.64852   L 927.31953,324.1685   L 926.83946,323.84849   L 926.51942,323.84849  z    M 4.1605363,325.76854   L 3.5204538,326.08855   L 2.8803713,326.40856   L 2.7203506,326.72857   L 2.56033,327.20858   L 2.0802681,333.12874   L 2.0802681,336.00881   L 2.0802681,339.04889   L 2.56033,341.28895   L 2.7203506,342.08897   L 3.0403919,342.88899   L 3.6804744,343.049   L 3.840495,343.049   L 4.0005156,342.88899   L 4.3205569,342.08897   L 4.9606394,340.64894   L 5.2806806,337.76886   L 5.6007219,334.72878   L 5.6007219,328.96863   L 5.7607425,327.36859   L 5.6007219,326.40856   L 5.2806806,326.24856   L 4.9606394,325.76854   L 4.1605363,325.76854  z    M 927.47955,349.28916   L 927.1595,349.44917   L 926.3594,349.92918   L 925.71932,350.5692   L 925.5593,351.04921   L 925.5593,351.52922   L 925.87934,354.24929   L 926.19938,357.12937   L 926.3594,359.84944   L 926.67944,362.56951   L 927.1595,363.84954   L 927.63957,364.80957   L 928.11963,365.44959   L 928.59969,365.44959   L 929.23977,364.96957   L 929.55981,364.48956   L 929.87986,363.36953   L 930.1999,361.92949   L 930.35992,359.68943   L 930.35992,357.28937   L 929.87986,354.5693   L 929.55981,352.32924   L 929.23977,350.5692   L 928.75971,349.92918   L 928.43967,349.44917   L 928.11963,349.28916   L 927.47955,349.28916  z    M 3.6804744,352.48925   L 3.2004125,352.64925   L 2.7203506,353.44927   L 2.2402888,354.7293   L 1.7602269,357.76938   L 1.7602269,359.84944   L 1.7602269,361.60948   L 1.9202475,364.32956   L 2.0802681,365.60959   L 2.56033,366.72962   L 3.0403919,367.52964   L 3.5204538,367.68964   L 3.840495,367.84965   L 4.1605363,367.68964   L 4.6405981,367.36964   L 4.8006188,366.72962   L 5.12066,365.9296   L 5.2806806,363.68954   L 5.6007219,361.28948   L 5.6007219,358.72941   L 5.2806806,356.32935   L 5.12066,354.4093   L 4.8006188,353.28927   L 4.3205569,352.64925   L 4.0005156,352.48925   L 3.6804744,352.48925  z    M 927.1595,373.7698   L 926.3594,374.08981   L 925.71932,374.72983   L 925.39928,375.68985   L 925.23926,376.80988   L 924.7592,378.24992   L 924.7592,381.45001   L 924.7592,385.1301   L 925.23926,388.33019   L 925.71932,391.05026   L 925.87934,391.85028   L 926.3594,392.49029   L 926.67944,392.8103   L 926.83946,392.8103   L 927.31953,392.6503   L 927.47955,392.49029   L 927.63957,391.37027   L 928.11963,390.09023   L 928.27965,387.05015   L 928.27965,385.1301   L 928.43967,382.89004   L 928.75971,379.20995   L 928.75971,377.4499   L 928.59969,375.84986   L 928.43967,374.72983   L 928.11963,374.24982   L 927.79959,373.92981   L 927.1595,373.7698  z    M 2.8803713,378.08992   L 2.0802681,378.24992   L 1.6002063,378.88994   L 1.1201444,379.68996   L 0.80010313,380.48998   L 0.6400825,381.45001   L 0.6400825,382.89004   L 0.6400825,385.45011   L 0.96012375,388.17018   L 1.6002063,390.57024   L 2.0802681,392.49029   L 2.56033,393.29032   L 2.8803713,393.77033   L 3.0403919,393.93033   L 3.2004125,393.77033   L 3.5204538,393.13031   L 3.6804744,390.25024   L 3.5204538,385.45011   L 3.840495,383.37006   L 4.3205569,380.96999   L 4.6405981,379.68996   L 4.3205569,378.72993   L 4.0005156,378.40993   L 3.840495,378.08992   L 2.8803713,378.08992  z    M 927.1595,400.3305   L 926.67944,400.4905   L 926.3594,400.65051   L 926.19938,401.13052   L 925.71932,402.57056   L 925.39928,403.85059   L 925.23926,406.57066   L 925.39928,409.29074   L 925.39928,411.8508   L 925.5593,414.09086   L 925.71932,415.21089   L 925.87934,416.33092   L 926.19938,417.13094   L 926.3594,417.29095   L 926.83946,417.29095   L 927.31953,417.13094   L 928.11963,416.01091   L 928.59969,415.05089   L 928.75971,413.93086   L 929.23977,411.21079   L 929.39979,408.33071   L 929.39979,406.09065   L 929.55981,403.69059   L 929.39979,402.41056   L 929.23977,401.77054   L 928.91973,401.13052   L 928.27965,400.65051   L 927.47955,400.3305   L 927.1595,400.3305  z    M 3.2004125,403.53058   L 2.56033,403.85059   L 2.0802681,404.49061   L 1.9202475,404.97062   L 1.6002063,406.73067   L 1.4401856,408.33071   L 1.1201444,409.77075   L 1.1201444,412.01081   L 1.1201444,415.05089   L 1.4401856,416.49092   L 1.7602269,417.93096   L 2.0802681,419.05099   L 2.2402888,419.371   L 2.7203506,419.531   L 3.5204538,420.01102   L 4.3205569,420.01102   L 4.8006188,419.531   L 4.9606394,418.41097   L 4.9606394,417.13094   L 5.12066,410.89078   L 4.9606394,404.65061   L 4.9606394,404.0106   L 4.8006188,403.69059   L 4.3205569,403.53058   L 3.2004125,403.53058  z    M 927.31953,427.69122   L 926.67944,428.17123   L 926.3594,428.49124   L 925.87934,429.29126   L 925.71932,430.41129   L 925.87934,433.45137   L 926.3594,438.5715   L 926.51942,440.01154   L 926.83946,440.97157   L 927.31953,441.61158   L 927.79959,441.61158   L 928.43967,441.29157   L 928.91973,440.65156   L 929.39979,439.69153   L 929.71983,438.5715   L 930.35992,436.17144   L 930.35992,433.93138   L 930.1999,431.69132   L 929.87986,429.45126   L 929.71983,428.65124   L 929.55981,428.17123   L 928.91973,427.85122   L 928.43967,427.69122   L 927.31953,427.69122  z    M 3.2004125,428.97125   L 2.8803713,429.45126   L 2.56033,429.61127   L 2.0802681,430.57129   L 1.9202475,431.53132   L 1.9202475,432.81135   L 1.9202475,433.93138   L 2.2402888,435.69143   L 2.0802681,437.93149   L 2.0802681,440.65156   L 2.0802681,442.0916   L 2.2402888,443.21163   L 2.7203506,444.33165   L 3.2004125,444.97167   L 3.6804744,445.29168   L 4.3205569,445.29168   L 4.8006188,445.13168   L 5.12066,444.33165   L 5.6007219,443.37163   L 5.7607425,442.0916   L 5.9207631,440.97157   L 5.9207631,439.05152   L 5.9207631,436.81146   L 5.9207631,433.61137   L 5.7607425,432.01133   L 5.6007219,430.57129   L 4.9606394,429.61127   L 4.8006188,429.29126   L 4.3205569,428.97125   L 3.2004125,428.97125  z    M 926.3594,454.09191   L 925.87934,454.57192   L 925.71932,455.21194   L 925.5593,456.17197   L 925.5593,458.25202   L 925.71932,460.81209   L 926.19938,463.37215   L 926.51942,465.2922   L 926.83946,466.57224   L 927.31953,467.37226   L 927.63957,467.53226   L 927.79959,467.37226   L 928.27965,466.89225   L 928.59969,466.09223   L 929.23977,464.33218   L 929.39979,462.89214   L 929.39979,460.97209   L 929.23977,458.73203   L 928.75971,456.49197   L 928.59969,455.53195   L 928.11963,454.73193   L 927.31953,454.25191   L 926.67944,454.09191   L 926.3594,454.09191  z    M 3.6804744,455.53195   L 3.0403919,456.33197   L 2.7203506,457.29199   L 1.9202475,459.85206   L 1.6002063,461.77211   L 1.6002063,463.53216   L 1.6002063,465.77222   L 1.6002063,466.89225   L 1.7602269,468.01228   L 1.9202475,468.9723   L 2.2402888,469.61232   L 3.0403919,469.93233   L 3.6804744,469.93233   L 4.0005156,469.61232   L 4.3205569,468.8123   L 4.8006188,467.37226   L 4.9606394,465.61221   L 5.12066,463.53216   L 5.2806806,461.2921   L 5.2806806,458.73203   L 5.12066,457.77201   L 4.8006188,456.65198   L 4.6405981,456.17197   L 4.1605363,455.69195   L 4.0005156,455.53195   L 3.6804744,455.53195  z    M 927.79959,476.81251   L 927.1595,476.97251   L 926.51942,477.29252   L 926.3594,477.77253   L 926.19938,478.25254   L 926.19938,481.29262   L 926.19938,484.3327   L 926.67944,490.41286   L 926.83946,492.65292   L 927.1595,493.77295   L 927.31953,494.73298   L 927.63957,495.37299   L 927.79959,495.37299   L 928.11963,495.21299   L 928.59969,494.57297   L 929.39979,493.13293   L 929.71983,491.6929   L 929.87986,490.41286   L 930.1999,487.37278   L 930.1999,484.3327   L 929.87986,481.45263   L 929.71983,479.21257   L 929.39979,477.93254   L 928.91973,477.29252   L 928.75971,476.97251   L 927.79959,476.81251  z    M 2.8803713,481.93264   L 2.2402888,482.09265   L 1.7602269,482.57266   L 1.1201444,483.21267   L 0.96012375,484.1727   L 0.6400825,485.13272   L 0.6400825,487.37278   L 0.6400825,489.77285   L 0.80010313,492.17291   L 1.1201444,493.93296   L 1.6002063,495.21299   L 1.9202475,495.693   L 2.0802681,496.17301   L 2.56033,496.17301   L 2.7203506,495.85301   L 3.2004125,495.37299   L 3.6804744,494.25296   L 4.1605363,491.6929   L 4.3205569,490.41286   L 4.6405981,488.49281   L 4.9606394,485.61274   L 4.9606394,484.3327   L 4.8006188,483.21267   L 4.3205569,482.41265   L 4.1605363,482.09265   L 3.840495,481.93264   L 2.8803713,481.93264  z    M 540.38965,499.85311   L 537.34926,500.01312   L 536.0691,500.01312   L 534.94895,500.49313   L 533.98883,500.65313   L 533.18872,501.13314   L 532.70866,501.77316   L 532.70866,502.57318   L 533.0287,502.89319   L 533.34875,503.05319   L 534.30887,503.53321   L 535.42901,503.69321   L 537.02922,503.69321   L 539.74957,503.2132   L 541.66982,503.05319   L 547.7506,503.05319   L 549.51083,502.73319   L 550.15091,502.57318   L 550.63097,502.09317   L 550.79099,501.93317   L 550.79099,501.77316   L 550.15091,501.45315   L 548.87075,500.97314   L 546.47044,500.65313   L 543.59007,500.33312   L 540.38965,499.85311  z    M 510.94586,500.49313   L 509.98573,500.65313   L 509.18563,500.81314   L 508.38553,501.45315   L 507.74545,501.93317   L 507.58542,502.41318   L 507.90547,502.89319   L 508.38553,503.05319   L 508.86559,503.53321   L 510.62582,503.85322   L 513.50619,504.01322   L 517.98677,504.01322   L 520.22705,503.85322   L 522.1473,503.69321   L 523.74751,503.05319   L 524.06755,502.89319   L 524.22757,502.57318   L 524.22757,502.41318   L 524.06755,502.09317   L 523.26745,501.61316   L 522.1473,501.45315   L 521.02716,501.13314   L 518.46683,500.81314   L 516.86662,500.81314   L 513.02613,500.49313   L 510.94586,500.49313  z    M 613.99914,500.65313   L 612.879,500.81314   L 611.75885,500.97314   L 610.95875,501.45315   L 610.47869,501.77316   L 610.31867,502.09317   L 610.47869,502.89319   L 610.79873,503.2132   L 611.11877,503.53321   L 612.39893,503.85322   L 613.51908,504.01322   L 617.83964,504.01322   L 619.9199,503.85322   L 622.32021,503.85322   L 623.44036,503.69321   L 624.5605,503.53321   L 626.80079,502.89319   L 627.28085,502.57318   L 627.44087,502.41318   L 627.44087,502.09317   L 627.12083,501.77316   L 625.52063,501.61316   L 623.12032,501.13314   L 620.23994,500.81314   L 617.03953,500.65313   L 613.99914,500.65313  z    M 698.16999,499.69311   L 693.04933,499.85311   L 690.80904,500.33312   L 689.36886,500.49313   L 688.24871,500.81314   L 687.44861,501.45315   L 687.28859,501.61316   L 687.28859,501.93317   L 687.28859,502.41318   L 687.76865,502.73319   L 688.88879,503.69321   L 689.84892,504.01322   L 691.12908,504.17322   L 692.40925,504.17322   L 693.84943,504.01322   L 696.56978,503.85322   L 698.81007,503.53321   L 701.69044,503.2132   L 703.29065,502.89319   L 703.77071,502.73319   L 704.25077,502.41318   L 704.41079,501.61316   L 704.57081,500.97314   L 704.57081,500.65313   L 704.41079,500.49313   L 703.93073,500.01312   L 703.45067,500.01312   L 700.73032,499.85311   L 698.16999,499.69311  z    M 740.8955,500.65313   L 739.93537,500.97314   L 739.45531,501.45315   L 739.29529,501.61316   L 738.97525,502.09317   L 738.97525,502.73319   L 738.97525,503.05319   L 739.45531,503.53321   L 740.41543,503.85322   L 741.6956,504.17322   L 750.9768,504.17322   L 752.25696,504.01322   L 753.53713,503.85322   L 754.49725,503.53321   L 754.81729,503.2132   L 755.13733,502.89319   L 755.13733,502.57318   L 755.13733,502.41318   L 754.81729,501.77316   L 754.01719,501.45315   L 753.05706,501.13314   L 750.81678,500.97314   L 749.05655,500.97314   L 746.97628,500.81314   L 743.93589,500.65313   L 740.8955,500.65313  z    M 719.93279,500.81314   L 717.85253,500.97314   L 716.8924,500.97314   L 716.0923,501.45315   L 715.61224,501.61316   L 715.2922,502.09317   L 715.2922,502.57318   L 715.61224,503.2132   L 716.0923,503.85322   L 716.8924,504.01322   L 718.01255,504.17322   L 718.97267,504.49323   L 726.49364,504.49323   L 727.13372,504.17322   L 727.45376,504.01322   L 727.93383,503.53321   L 728.25387,502.89319   L 728.25387,502.57318   L 728.25387,502.41318   L 727.93383,501.93317   L 727.45376,501.77316   L 724.41337,501.13314   L 722.3331,500.97314   L 719.93279,500.81314  z    M 662.64541,500.65313   L 661.68529,500.81314   L 661.20523,501.45315   L 661.0452,501.61316   L 661.0452,501.93317   L 661.0452,502.57318   L 661.36525,503.05319   L 661.52527,503.53321   L 662.16535,503.69321   L 663.12547,504.01322   L 664.56566,504.49323   L 666.16586,504.49323   L 669.20626,504.65324   L 671.28652,504.49323   L 673.04675,504.17322   L 676.08714,503.85322   L 678.80749,503.05319   L 679.44758,502.89319   L 679.6076,502.73319   L 679.44758,502.73319   L 677.84737,502.09317   L 676.40718,501.77316   L 673.36679,501.13314   L 667.12599,500.81314   L 665.20574,500.65313   L 662.64541,500.65313  z    M 767.61894,500.65313   L 766.17876,500.81314   L 764.89859,501.13314   L 764.57855,501.45315   L 764.41853,501.77316   L 764.25851,502.41318   L 764.25851,502.89319   L 764.41853,503.2132   L 764.57855,503.53321   L 765.53867,504.01322   L 766.65882,504.17322   L 767.93898,504.49323   L 769.37917,504.49323   L 771.29942,504.17322   L 773.37968,504.49323   L 776.74012,504.65324   L 778.1803,504.65324   L 779.78051,504.49323   L 780.90065,504.01322   L 781.22069,503.85322   L 781.70076,503.53321   L 781.86078,503.05319   L 781.70076,502.89319   L 781.38072,502.57318   L 781.06067,502.41318   L 780.10055,501.93317   L 778.98041,501.77316   L 776.42008,501.45315   L 774.81987,501.45315   L 772.57958,501.13314   L 769.37917,500.81314   L 767.61894,500.65313  z    M 408.69268,500.49313   L 407.73255,500.81314   L 407.09247,500.97314   L 406.29237,501.61316   L 406.13235,502.09317   L 405.97233,502.89319   L 406.13235,503.85322   L 406.61241,504.49323   L 407.25249,504.65324   L 408.21262,504.81324   L 410.13286,504.65324   L 411.57305,504.65324   L 413.4933,504.49323   L 416.85373,504.17322   L 418.61396,504.01322   L 419.7341,503.69321   L 420.05414,503.53321   L 420.21416,503.05319   L 420.21416,502.73319   L 419.89412,502.41318   L 418.61396,501.77316   L 416.85373,501.13314   L 414.45342,500.65313   L 411.89309,500.49313   L 408.69268,500.49313  z    M 642.80285,500.97314   L 639.76246,501.13314   L 637.52217,501.77316   L 636.72207,502.09317   L 636.24201,502.57318   L 636.08199,503.05319   L 636.24201,503.69321   L 636.56205,504.01322   L 636.88209,504.17322   L 638.16226,504.65324   L 639.44242,504.81324   L 643.76298,504.81324   L 646.00327,504.65324   L 647.76349,504.49323   L 650.64386,504.01322   L 651.92403,503.69321   L 652.88415,503.05319   L 653.20419,502.89319   L 653.20419,502.73319   L 653.20419,502.41318   L 652.88415,501.93317   L 652.24407,501.77316   L 651.28395,501.61316   L 648.88364,501.13314   L 646.00327,500.97314   L 642.80285,500.97314  z    M 875.31282,500.65313   L 872.11241,500.81314   L 870.5122,500.81314   L 869.07202,501.13314   L 867.95187,501.61316   L 867.79185,501.93317   L 867.63183,502.41318   L 867.63183,502.89319   L 867.63183,503.53321   L 867.79185,503.85322   L 868.27191,504.01322   L 868.912,504.65324   L 870.03214,504.81324   L 871.15229,504.81324   L 872.59247,504.65324   L 874.19268,504.49323   L 876.27295,504.49323   L 879.15332,504.65324   L 880.43348,504.49323   L 881.87367,504.49323   L 882.83379,504.01322   L 883.47387,503.53321   L 883.79392,502.89319   L 883.95394,502.57318   L 883.95394,502.09317   L 883.79392,501.93317   L 882.99381,501.45315   L 881.87367,500.97314   L 880.75352,500.81314   L 879.63338,500.65313   L 875.31282,500.65313  z    M 335.40323,500.65313   L 332.36284,500.81314   L 330.92265,500.97314   L 329.64249,501.45315   L 328.36232,501.77316   L 328.04228,502.09317   L 327.88226,502.57318   L 327.72224,503.05319   L 327.56222,503.69321   L 327.72224,504.01322   L 327.88226,504.49323   L 328.04228,504.65324   L 328.36232,504.81324   L 329.64249,504.97325   L 331.72276,504.97325   L 333.32296,504.65324   L 338.2836,504.65324   L 341.00395,504.49323   L 341.80406,504.01322   L 342.76418,503.69321   L 343.40426,503.2132   L 343.7243,502.73319   L 344.04435,502.41318   L 344.04435,502.09317   L 343.7243,501.77316   L 343.40426,501.61316   L 342.28412,501.13314   L 341.16397,500.81314   L 339.56377,500.81314   L 337.4835,500.65313   L 335.40323,500.65313  z    M 462.45961,501.13314   L 459.2592,501.45315   L 457.97903,501.61316   L 456.85889,501.77316   L 455.89876,502.09317   L 455.25868,502.73319   L 455.09866,503.2132   L 455.57872,504.01322   L 455.73874,504.49323   L 456.05878,504.65324   L 457.17893,504.81324   L 458.77913,504.97325   L 460.21932,504.81324   L 463.25971,504.49323   L 465.5,504.17322   L 467.26023,504.01322   L 470.62066,503.69321   L 472.22087,503.53321   L 473.34101,503.05319   L 473.66105,502.89319   L 473.82107,502.73319   L 473.82107,502.57318   L 473.66105,502.41318   L 472.06085,501.93317   L 469.3405,501.45315   L 466.14008,501.13314   L 462.45961,501.13314  z    M 491.74338,501.45315   L 488.54297,501.61316   L 485.50258,501.77316   L 483.10227,502.41318   L 482.14215,502.73319   L 481.66208,503.05319   L 481.50206,503.53321   L 481.8221,504.01322   L 481.98212,504.49323   L 482.62221,504.65324   L 483.74235,504.97325   L 486.78274,504.97325   L 489.82314,504.81324   L 492.06342,504.49323   L 493.82365,504.01322   L 496.38398,503.2132   L 497.82417,502.89319   L 498.46425,502.57318   L 498.62427,502.41318   L 498.94431,502.09317   L 498.62427,501.93317   L 498.30423,501.77316   L 497.02406,501.61316   L 494.78377,501.61316   L 491.74338,501.45315  z    M 566.31299,500.81314   L 563.43262,500.97314   L 561.99244,501.13314   L 560.55225,501.61316   L 559.75215,502.09317   L 559.27209,502.41318   L 559.11207,502.73319   L 559.11207,503.53321   L 559.11207,503.85322   L 559.27209,504.17322   L 559.75215,504.65324   L 560.55225,504.81324   L 561.99244,504.97325   L 563.2726,504.81324   L 564.55277,504.65324   L 566.47301,504.17322   L 571.43365,504.01322   L 572.87384,503.85322   L 574.31403,503.69321   L 575.27415,503.2132   L 575.43417,503.05319   L 575.59419,502.73319   L 575.43417,502.41318   L 575.27415,502.09317   L 574.47405,501.61316   L 573.51392,501.13314   L 572.39378,500.97314   L 570.15349,500.81314   L 566.31299,500.81314  z    M 896.91561,501.13314   L 895.79546,501.45315   L 895.15538,501.77316   L 894.67532,502.09317   L 894.5153,502.57318   L 894.5153,503.05319   L 894.5153,503.53321   L 894.67532,503.85322   L 894.83534,504.17322   L 895.79546,504.65324   L 896.75559,504.97325   L 906.1968,504.97325   L 907.47697,504.81324   L 908.11705,504.49323   L 908.59711,504.17322   L 908.75713,503.85322   L 908.75713,503.69321   L 908.75713,503.2132   L 908.11705,502.73319   L 907.47697,502.41318   L 906.1968,501.93317   L 903.95651,501.77316   L 902.51633,501.61316   L 900.7561,501.45315   L 898.19577,501.13314   L 896.91561,501.13314  z    M 797.38278,500.97314   L 794.66243,501.45315   L 793.54228,501.77316   L 792.58216,502.09317   L 791.94208,502.57318   L 791.46201,502.89319   L 791.46201,503.53321   L 791.62204,504.01322   L 792.26212,504.49323   L 793.06222,504.81324   L 794.98247,505.13325   L 797.38278,505.13325   L 799.94311,504.97325   L 802.50344,504.65324   L 804.58371,504.01322   L 805.38381,503.69321   L 805.86387,503.05319   L 806.02389,502.73319   L 806.02389,502.09317   L 805.70385,501.77316   L 804.90375,501.45315   L 802.82348,500.97314   L 797.38278,500.97314  z    M 256.8331,500.97314   L 253.47267,501.13314   L 251.71244,501.45315   L 250.27226,501.77316   L 249.63218,501.93317   L 249.15211,502.41318   L 248.83207,502.73319   L 248.67205,503.2132   L 248.83207,503.85322   L 249.15211,504.17322   L 249.47216,504.65324   L 250.11224,504.97325   L 251.3924,505.13325   L 252.83259,505.45326   L 256.033,504.97325   L 258.43331,504.81324   L 260.6736,504.81324   L 264.03403,504.65324   L 265.95428,504.65324   L 267.39447,504.17322   L 268.35459,503.85322   L 268.83465,503.69321   L 268.83465,503.2132   L 268.83465,502.89319   L 268.35459,502.57318   L 267.39447,501.93317   L 266.1143,501.61316   L 264.35407,501.45315   L 261.15366,501.13314   L 259.07339,501.13314   L 256.8331,500.97314  z    M 845.54899,501.45315   L 843.78876,501.61316   L 842.50859,501.93317   L 842.02853,502.41318   L 841.86851,502.73319   L 841.86851,503.05319   L 842.02853,503.53321   L 842.18855,503.85322   L 842.66861,504.17322   L 843.78876,504.81324   L 845.06892,505.13325   L 847.9493,505.45326   L 851.94981,505.45326   L 854.51014,505.13325   L 855.95033,504.97325   L 857.07047,504.65324   L 858.03059,504.01322   L 858.35064,503.69321   L 858.51066,503.2132   L 858.51066,502.57318   L 858.35064,501.93317   L 858.03059,501.77316   L 857.23049,501.61316   L 855.63029,501.61316   L 854.35012,501.77316   L 851.78979,501.77316   L 847.62925,501.45315   L 845.54899,501.45315  z    M 308.35975,501.45315   L 306.4395,501.61316   L 304.99931,501.77316   L 303.55913,502.09317   L 303.23909,502.57318   L 302.91904,502.89319   L 302.27896,503.53321   L 302.11894,504.01322   L 302.11894,504.49323   L 302.11894,504.81324   L 302.27896,504.97325   L 302.599,505.13325   L 303.39911,505.61326   L 304.35923,505.77327   L 305.47937,505.77327   L 307.2396,505.61326   L 309.47989,505.61326   L 312.6803,505.45326   L 314.28051,505.45326   L 315.72069,505.13325   L 316.84084,504.81324   L 317.3209,504.65324   L 317.64094,504.17322   L 317.80096,503.69321   L 317.80096,503.05319   L 317.48092,502.73319   L 316.84084,502.41318   L 315.56067,501.93317   L 314.28051,501.77316   L 311.56016,501.61316   L 308.35975,501.45315  z    M 382.28927,501.45315   L 380.84909,501.61316   L 379.56892,501.93317   L 378.76882,502.09317   L 378.44878,502.57318   L 378.28876,502.73319   L 378.28876,503.05319   L 378.44878,503.2132   L 378.76882,503.69321   L 379.72894,504.17322   L 382.4493,505.13325   L 384.0495,505.61326   L 386.44981,505.61326   L 389.17016,505.77327   L 391.89051,505.61326   L 393.01066,505.13325   L 394.1308,504.81324   L 395.25095,504.17322   L 395.41097,503.85322   L 395.73101,503.69321   L 395.73101,503.2132   L 395.41097,503.05319   L 394.9309,502.73319   L 393.97078,502.57318   L 392.85064,502.41318   L 390.77037,501.93317   L 387.89,501.61316   L 385.00963,501.45315   L 382.28927,501.45315  z    M 598.1571,501.61316   L 595.59677,501.77316   L 594.15658,501.93317   L 588.8759,501.93317   L 587.2757,502.09317   L 585.99553,502.57318   L 585.67549,502.89319   L 585.19543,503.05319   L 584.87539,503.69321   L 584.87539,504.01322   L 584.87539,504.65324   L 585.19543,504.97325   L 585.67549,505.45326   L 586.15555,505.61326   L 587.59574,505.77327   L 589.03592,505.77327   L 592.23634,505.61326   L 594.3166,505.13325   L 596.07683,504.97325   L 598.31712,504.81324   L 599.43726,504.49323   L 600.39739,504.01322   L 601.03747,503.53321   L 601.19749,503.05319   L 601.35751,502.73319   L 601.19749,502.41318   L 601.03747,502.09317   L 600.23737,501.77316   L 599.27724,501.61316   L 598.1571,501.61316  z    M 441.17686,501.61316   L 438.61653,501.77316   L 436.21623,502.09317   L 434.13596,502.73319   L 433.33585,503.05319   L 432.85579,503.53321   L 432.37573,503.85322   L 432.37573,504.49323   L 432.85579,504.97325   L 433.49587,505.61326   L 434.29598,505.93327   L 435.09608,505.93327   L 437.33637,505.77327   L 439.41664,505.45326   L 441.17686,504.97325   L 442.29701,504.65324   L 444.37728,503.69321   L 445.3374,503.05319   L 445.65744,502.57318   L 445.65744,502.41318   L 445.49742,501.93317   L 445.17738,501.77316   L 444.5373,501.61316   L 441.17686,501.61316  z    M 76.8099,502.09317   L 73.449467,502.41318   L 72.169302,502.57318   L 71.049158,502.89319   L 70.089034,503.2132   L 69.768993,503.85322   L 69.608972,504.01322   L 69.608972,504.49323   L 69.929013,505.13325   L 70.249055,505.61326   L 70.729117,505.77327   L 71.849261,505.93327   L 73.289447,506.09327   L 74.889653,505.93327   L 77.930045,505.61326   L 80.010313,505.45326   L 84.650911,504.17322   L 87.371262,503.53321   L 87.851323,503.2132   L 88.171365,503.05319   L 86.411138,502.73319   L 83.690787,502.41318   L 80.330354,502.09317   L 76.8099,502.09317  z    M 124.81609,501.61316   L 123.53592,501.93317   L 122.89584,502.09317   L 122.5758,502.41318   L 122.25576,502.89319   L 121.93572,503.53321   L 121.93572,503.85322   L 122.25576,504.17322   L 122.41578,504.65324   L 122.73582,504.97325   L 123.85596,505.45326   L 125.45617,505.77327   L 128.17652,505.93327   L 130.09677,505.93327   L 131.857,506.09327   L 135.85751,506.09327   L 137.13768,505.93327   L 137.93778,505.45326   L 138.25782,505.13325   L 138.41784,504.81324   L 138.41784,504.49323   L 138.25782,504.17322   L 137.77776,503.69321   L 136.65761,503.2132   L 135.37745,503.05319   L 132.97714,502.57318   L 131.69697,502.57318   L 129.45669,501.93317   L 126.41629,501.61316   L 124.81609,501.61316  z    M 150.41939,501.93317   L 149.13922,502.41318   L 148.01908,502.89319   L 147.69904,503.2132   L 147.379,503.69321   L 147.379,504.17322   L 147.379,504.81324   L 147.53902,505.13325   L 148.01908,505.61326   L 149.13922,505.93327   L 150.41939,506.09327   L 153.29976,506.09327   L 155.38003,505.93327   L 157.30028,505.93327   L 160.34067,505.77327   L 161.62083,505.77327   L 162.901,505.61326   L 163.86112,505.13325   L 164.02114,504.81324   L 164.18116,504.65324   L 164.5012,504.01322   L 164.18116,503.69321   L 164.02114,503.2132   L 163.7011,503.05319   L 162.74098,502.73319   L 161.62083,502.41318   L 158.90048,502.09317   L 156.98023,502.09317   L 154.73994,501.93317   L 150.41939,501.93317  z    M 202.90615,501.93317   L 201.78601,502.09317   L 200.66586,502.57318   L 199.86576,502.89319   L 199.54572,503.53321   L 199.22568,504.01322   L 199.22568,504.81324   L 199.54572,505.13325   L 199.86576,505.61326   L 200.82589,505.93327   L 201.94603,506.09327   L 203.22619,506.09327   L 205.94655,505.93327   L 207.54675,505.93327   L 210.10708,505.77327   L 212.34737,505.61326   L 213.30749,505.13325   L 214.74768,504.65324   L 215.38776,504.17322   L 215.7078,503.85322   L 215.7078,503.69321   L 215.7078,503.53321   L 215.06772,503.05319   L 213.62754,502.73319   L 211.38725,502.41318   L 208.50688,502.09317   L 205.78652,501.93317   L 202.90615,501.93317  z    M 817.38536,502.57318   L 816.90529,502.73319   L 816.74527,503.05319   L 816.74527,503.53321   L 817.06531,504.17322   L 818.02544,504.81324   L 818.82554,505.45326   L 819.78567,505.61326   L 822.18597,505.93327   L 824.42626,506.09327   L 826.50653,505.93327   L 827.7867,505.61326   L 830.34703,504.49323   L 831.46717,504.01322   L 832.26727,503.53321   L 832.42729,503.05319   L 832.42729,502.89319   L 831.94723,502.89319   L 830.66707,502.57318   L 829.22688,502.57318   L 826.18649,502.73319   L 821.54589,502.73319   L 820.10571,502.57318   L 817.38536,502.57318  z    M 99.85287,501.93317   L 97.772602,502.09317   L 96.172396,502.57318   L 95.532314,502.73319   L 94.892231,503.05319   L 94.57219,503.53321   L 94.092128,504.01322   L 94.092128,504.65324   L 94.092128,504.97325   L 94.412169,505.61326   L 94.892231,505.77327   L 96.012375,506.09327   L 97.612582,506.25328   L 100.65297,506.25328   L 102.73324,506.09327   L 105.13355,506.09327   L 108.33396,506.25328   L 109.93417,506.09327   L 111.37436,505.93327   L 112.4945,505.61326   L 113.61464,504.97325   L 114.25473,504.49323   L 114.41475,504.01322   L 114.57477,503.69321   L 114.41475,503.2132   L 114.09471,502.89319   L 113.45462,502.73319   L 112.17446,502.41318   L 110.41423,502.41318   L 108.97405,502.09317   L 103.69337,502.09317   L 99.85287,501.93317  z    M 286.43692,501.93317   L 282.91647,502.09317   L 279.71605,502.57318   L 278.43589,502.73319   L 277.31574,503.05319   L 276.35562,503.53321   L 275.71554,503.85322   L 275.3955,504.49323   L 275.55552,505.13325   L 276.03558,505.61326   L 276.35562,505.93327   L 277.47576,506.25328   L 280.67618,506.25328   L 283.87659,505.77327   L 286.2769,505.45326   L 287.87711,504.97325   L 290.9175,504.17322   L 292.19766,503.69321   L 293.15779,503.05319   L 293.79787,502.73319   L 293.63785,502.57318   L 293.47783,502.41318   L 291.87762,502.09317   L 289.47731,501.93317   L 286.43692,501.93317  z    M 354.76573,502.09317   L 353.48556,502.41318   L 352.84548,502.57318   L 352.52544,502.73319   L 352.36542,503.05319   L 352.04538,503.53321   L 352.04538,504.01322   L 352.36542,504.65324   L 352.68546,505.13325   L 353.0055,505.45326   L 354.12564,505.93327   L 355.72585,506.25328   L 357.48608,506.25328   L 361.00653,506.09327   L 363.40684,505.93327   L 365.16707,505.77327   L 368.36748,504.97325   L 369.64765,504.65324   L 370.60777,504.01322   L 371.08783,503.85322   L 371.24785,503.69321   L 371.08783,503.53321   L 370.92781,503.2132   L 369.48762,502.73319   L 368.20746,502.57318   L 366.76727,502.41318   L 365.32709,502.41318   L 362.2867,502.57318   L 359.56635,502.57318   L 357.6461,502.41318   L 356.20591,502.09317   L 354.76573,502.09317  z    M 920.9187,501.45315   L 920.1186,501.61316   L 919.47851,501.93317   L 919.15847,502.57318   L 919.15847,503.05319   L 919.15847,503.69321   L 919.31849,504.17322   L 920.1186,505.13325   L 920.9187,505.77327   L 922.03884,506.09327   L 923.15899,506.25328   L 924.27913,506.25328   L 925.23926,505.93327   L 925.87934,505.13325   L 926.83946,504.17322   L 927.1595,503.69321   L 927.1595,503.05319   L 926.83946,502.73319   L 926.3594,502.57318   L 924.7592,502.09317   L 922.99897,501.61316   L 921.7188,501.45315   L 920.9187,501.45315  z    M 182.74355,502.41318   L 179.38312,502.57318   L 176.34273,502.89319   L 175.06256,503.05319   L 174.10244,503.53321   L 173.30234,503.85322   L 172.9823,504.49323   L 172.9823,505.13325   L 173.30234,505.93327   L 173.94242,506.25328   L 175.06256,506.57329   L 176.18271,506.57329   L 177.62289,506.25328   L 180.34325,506.09327   L 182.26349,505.77327   L 184.82382,505.61326   L 187.54417,504.97325   L 188.34428,504.65324   L 189.62444,503.85322   L 190.1045,503.53321   L 190.58457,503.2132   L 190.58457,503.05319   L 190.58457,502.89319   L 189.94448,502.73319   L 188.5043,502.57318   L 185.94397,502.41318   L 182.74355,502.41318  z    M 231.70987,502.73319   L 228.66947,502.89319   L 226.42919,503.2132   L 225.46906,503.69321   L 224.82898,504.01322   L 224.66896,504.65324   L 224.82898,505.13325   L 224.989,505.61326   L 225.46906,505.93327   L 226.58921,506.25328   L 227.70935,506.57329   L 229.14954,506.25328   L 232.02991,506.09327   L 234.11018,505.77327   L 235.71038,505.45326   L 238.43073,504.81324   L 240.67102,504.01322   L 241.3111,503.69321   L 241.3111,503.53321   L 241.15108,503.53321   L 239.87092,503.05319   L 237.47061,502.89319   L 234.75026,502.73319   L 231.70987,502.73319  z    M 23.683053,501.93317   L 22.402888,502.09317   L 21.282743,502.41318   L 20.802681,502.57318   L 20.48264,502.89319   L 20.322619,503.2132   L 20.162599,503.85322   L 20.162599,504.17322   L 20.322619,504.65324   L 20.802681,505.45326   L 21.602784,505.77327   L 22.722929,506.09327   L 24.963218,506.25328   L 26.563424,506.25328   L 28.323651,506.57329   L 30.72396,506.73329   L 32.004125,506.73329   L 32.964249,506.57329   L 33.924373,506.09327   L 34.244414,505.93327   L 34.564455,505.61326   L 34.564455,505.13325   L 34.564455,504.81324   L 33.924373,504.17322   L 33.12427,503.85322   L 32.004125,503.53321   L 29.763836,502.89319   L 28.323651,502.73319   L 26.403403,502.41318   L 23.683053,501.93317  z    M 47.366105,502.09317   L 45.605878,502.41318   L 44.965796,502.41318   L 44.165693,502.73319   L 43.845651,503.05319   L 43.36559,503.53321   L 43.205569,504.01322   L 43.205569,504.65324   L 43.36559,504.97325   L 43.845651,505.45326   L 45.125816,505.93327   L 46.886043,506.25328   L 48.48625,506.73329   L 50.406497,506.73329   L 52.646786,506.8933   L 54.727054,506.8933   L 57.607425,507.0533   L 59.207631,507.0533   L 60.487796,506.8933   L 61.44792,506.57329   L 61.767961,506.25328   L 62.088003,505.93327   L 62.568065,505.45326   L 62.568065,504.97325   L 62.568065,504.65324   L 62.408044,504.17322   L 61.607941,503.69321   L 60.487796,503.53321   L 59.207631,503.2132   L 57.767446,503.05319   L 55.687178,503.05319   L 53.126848,502.73319   L 49.286353,502.09317   L 47.366105,502.09317  z    M 3.840495,502.89319   L 2.0802681,503.2132   L 1.6002063,503.69321   L 0.96012375,504.01322   L 0.6400825,504.65324   L 0.6400825,505.13325   L 0.6400825,505.93327   L 0.96012375,506.8933   L 1.4401856,507.2133   L 1.9202475,507.69332   L 2.56033,507.69332   L 3.2004125,507.53331   L 4.6405981,507.0533   L 5.6007219,506.73329   L 6.7208663,506.25328   L 8.3210725,505.77327   L 9.1211757,505.13325   L 9.7612582,504.81324   L 9.9212788,504.17322   L 9.9212788,504.01322   L 9.7612582,503.69321   L 8.8011344,503.2132   L 7.3609488,503.05319   L 5.7607425,502.89319   L 3.840495,502.89319  z   "
     id="path1005" />
</svg>
