<?xml version="1.0" encoding="UTF-8" standalone="no"?>
<svg
   xmlns:dc="http://purl.org/dc/elements/1.1/"
   xmlns:cc="http://creativecommons.org/ns#"
   xmlns:rdf="http://www.w3.org/1999/02/22-rdf-syntax-ns#"
   xmlns:svg="http://www.w3.org/2000/svg"
   xmlns="http://www.w3.org/2000/svg"
   xmlns:sodipodi="http://sodipodi.sourceforge.net/DTD/sodipodi-0.dtd"
   xmlns:inkscape="http://www.inkscape.org/namespaces/inkscape"
   version="1.0"
   width="58.428818mm"
   height="5.2475696mm"
   id="svg1121"
   sodipodi:docname="separator-loops.svg"
   inkscape:version="0.92.2 (5c3e80d, 2017-08-06)">
  <metadata
     id="metadata1125">
    <rdf:RDF>
      <cc:Work
         rdf:about="">
        <dc:format>image/svg+xml</dc:format>
        <dc:type
           rdf:resource="http://purl.org/dc/dcmitype/StillImage" />
        <dc:title></dc:title>
      </cc:Work>
    </rdf:RDF>
  </metadata>
  <sodipodi:namedview
     pagecolor="#ffffff"
     bordercolor="#666666"
     borderopacity="1"
     objecttolerance="10"
     gridtolerance="10"
     guidetolerance="10"
     inkscape:pageopacity="0"
     inkscape:pageshadow="2"
     inkscape:window-width="640"
     inkscape:window-height="480"
     id="namedview1123"
     showgrid="false"
     inkscape:zoom="6.9056606"
     inkscape:cx="110.41666"
     inkscape:cy="9.9166669"
     inkscape:window-x="0"
     inkscape:window-y="0"
     inkscape:window-maximized="1"
     inkscape:current-layer="svg1121" />
  <defs
     id="defs1117">
    <pattern
       id="WMFhbasepattern"
       patternUnits="userSpaceOnUse"
       width="6"
       height="6"
       x="0"
       y="0" />
  </defs>
  <path
     style="fill:#7c7f91;fill-rule:evenodd;fill-opacity:1;stroke:none;"
     d="  M 36.777778,5.4363144   L 37.577295,5.9159892   L 37.737198,7.0352304   L 38.057005,9.1138211   L 37.737198,10.233062   L 37.577295,11.03252   L 37.257488,11.512195   L 36.457971,11.99187   L 35.658454,11.99187   L 34.858937,11.831978   L 34.699034,11.512195   L 34.379227,11.192412   L 34.379227,10.392954   L 34.379227,9.5934959   L 34.699034,7.9945799   L 35.498551,6.2357724   L 35.658454,5.596206   L 36.138164,5.4363144   L 36.777778,5.4363144  z    M 17.109662,6.7154472   L 17.749275,7.8346883   L 18.228986,9.1138211   L 18.228986,10.392954   L 17.909179,11.512195   L 16.310145,12.311653   L 15.350725,12.631436   L 14.551208,11.99187   L 13.911594,11.512195   L 13.911594,10.392954   L 14.551208,9.1138211   L 15.510628,7.9945799   L 17.109662,6.7154472  z    M 79.631884,8.3143631   L 80.111594,9.1138211   L 80.431401,9.9132791   L 80.911111,11.99187   L 80.751208,13.111111   L 80.431401,13.590786   L 79.951691,13.590786   L 79.152174,13.111111   L 78.51256,12.311653   L 78.03285,11.831978   L 78.03285,11.192412   L 78.03285,10.712737   L 78.51256,9.4336043   L 79.631884,8.3143631  z    M 126.96329,7.9945799   L 128.08261,8.3143631   L 128.56232,8.7940379   L 129.20193,9.5934959   L 128.88213,10.712737   L 128.40242,11.831978   L 127.6029,12.791328   L 126.16377,13.590786   L 124.56473,13.590786   L 123.28551,13.430894   L 122.32609,12.791328   L 121.68647,11.99187   L 121.68647,11.512195   L 121.68647,11.03252   L 122.00628,10.392954   L 122.48599,9.9132791   L 124.40483,8.7940379   L 125.68406,8.3143631   L 126.96329,7.9945799  z    M 60.283575,7.0352304   L 60.603382,7.195122   L 60.763285,7.8346883   L 61.083092,8.3143631   L 61.083092,9.1138211   L 60.603382,11.03252   L 59.803865,11.99187   L 59.004348,12.791328   L 57.885024,13.430894   L 56.925604,13.910569   L 55.80628,13.910569   L 55.006763,13.590786   L 55.006763,13.430894   L 54.686957,12.791328   L 55.006763,11.192412   L 55.80628,9.5934959   L 57.085507,8.3143631   L 58.204831,7.5149051   L 59.164251,7.0352304   L 60.283575,7.0352304  z    M 99.77971,9.9132791   L 99.77971,10.233062   L 100.57923,10.392954   L 101.53865,11.831978   L 101.85845,12.631436   L 101.85845,13.111111   L 101.37874,13.590786   L 100.25942,13.910569   L 98.980193,13.590786   L 98.500483,13.111111   L 98.180676,12.631436   L 98.500483,11.831978   L 98.660386,11.03252   L 99.140097,10.233062   L 99.77971,9.9132791  z    M 166.77923,8.6341463   L 167.25894,8.7940379   L 167.57874,9.4336043   L 167.57874,10.233062   L 167.25894,11.192412   L 166.77923,12.311653   L 166.45942,13.590786   L 166.13961,13.910569   L 165.97971,14.230352   L 164.38068,14.230352   L 163.74106,13.590786   L 163.58116,13.111111   L 163.26135,12.631436   L 163.26135,11.99187   L 163.74106,10.712737   L 164.86039,9.5934959   L 165.97971,8.7940379   L 166.45942,8.6341463   L 166.77923,8.6341463  z    M 200.35894,9.9132791   L 200.83865,10.233062   L 201.63816,10.712737   L 201.95797,11.512195   L 202.27778,12.631436   L 202.27778,13.590786   L 201.95797,14.390244   L 201.47826,15.02981   L 200.67874,15.189702   L 200.03913,15.02981   L 199.55942,14.390244   L 199.07971,13.590786   L 198.7599,12.631436   L 198.7599,11.831978   L 199.07971,10.712737   L 199.55942,10.233062   L 200.35894,9.9132791  z    M 144.23285,10.233062   L 144.71256,10.392954   L 145.51208,10.712737   L 146.15169,11.512195   L 146.31159,12.311653   L 146.6314,13.430894   L 146.6314,14.390244   L 146.15169,15.02981   L 145.83188,15.509485   L 145.35217,15.509485   L 144.55266,15.02981   L 143.91304,14.390244   L 143.43333,13.111111   L 143.43333,11.99187   L 143.43333,11.03252   L 143.75314,10.392954   L 144.23285,10.233062  z    M 185.80773,10.392954   L 186.28744,11.03252   L 186.92705,11.99187   L 187.08696,13.430894   L 187.08696,14.710027   L 186.92705,15.98916   L 186.60725,16.628726   L 186.28744,16.788618   L 185.80773,17.108401   L 185.00821,17.108401   L 184.2087,16.788618   L 183.40918,16.308943   L 182.92947,15.509485   L 182.92947,15.02981   L 182.92947,14.230352   L 183.40918,13.430894   L 184.5285,11.831978   L 185.80773,10.392954  z    M 44.93285,0.6395664   L 40.775362,1.1192412   L 36.457971,2.398374   L 34.858937,2.7181572   L 32.780193,2.398374   L 30.701449,2.2384824   L 28.782609,1.9186992   L 26.384058,2.2384824   L 24.305314,2.7181572   L 21.906763,3.197832   L 18.228986,3.197832   L 16.949758,3.0379404   L 13.911594,2.2384824   L 12.31256,1.9186992   L 10.87343,1.598916   L 8.9545894,1.9186992   L 7.0357488,2.7181572   L 5.2768116,3.99729   L 2.5584541,6.2357724   L 1.2792271,7.5149051   L 0.79951691,8.3143631   L 0.79951691,8.7940379   L 0.95942029,8.7940379   L 1.2792271,9.1138211   L 2.078744,9.1138211   L 2.8782609,8.7940379   L 3.8376812,8.6341463   L 5.2768116,7.5149051   L 8.4748792,5.1165312   L 10.073913,3.99729   L 10.87343,3.8373984   L 11.672947,3.5176152   L 12.632367,3.5176152   L 13.431884,3.8373984   L 14.551208,4.3170732   L 15.830435,5.1165312   L 13.911594,6.2357724   L 12.632367,7.5149051   L 11.83285,8.7940379   L 11.35314,10.233062   L 11.033333,11.192412   L 11.35314,12.631436   L 11.672947,13.430894   L 12.152657,14.390244   L 12.952174,15.189702   L 13.751691,15.829268   L 14.711111,15.98916   L 16.949758,15.98916   L 17.909179,15.509485   L 18.708696,14.390244   L 19.828019,13.430894   L 20.147826,12.311653   L 20.147826,11.192412   L 19.508213,8.7940379   L 19.028502,7.0352304   L 19.028502,6.2357724   L 19.348309,5.596206   L 20.307729,5.1165312   L 21.906763,4.796748   L 26.384058,3.99729   L 33.1,3.99729   L 34.699034,4.3170732   L 33.259903,5.596206   L 32.460386,7.195122   L 31.980676,9.1138211   L 31.980676,11.03252   L 32.460386,12.631436   L 33.1,13.430894   L 33.57971,13.910569   L 34.05942,14.230352   L 34.858937,14.390244   L 35.978261,14.390244   L 36.937681,14.230352   L 38.057005,13.590786   L 38.536715,13.111111   L 39.656039,11.99187   L 40.135749,10.392954   L 40.455556,8.7940379   L 39.975845,7.195122   L 39.336232,5.596206   L 38.376812,4.6368564   L 36.937681,3.5176152   L 42.054589,3.197832   L 47.331401,3.0379404   L 50.209662,3.197832   L 52.928019,3.5176152   L 55.486473,3.99729   L 57.885024,5.1165312   L 56.28599,6.395664   L 54.686957,7.9945799   L 53.407729,9.9132791   L 52.608213,11.831978   L 52.288406,12.631436   L 52.288406,13.590786   L 52.608213,14.230352   L 52.928019,15.02981   L 53.727536,15.509485   L 54.527053,15.829268   L 55.486473,15.98916   L 57.085507,15.98916   L 59.004348,15.509485   L 60.763285,14.710027   L 62.362319,13.590786   L 63.481643,12.311653   L 63.961353,10.712737   L 64.281159,9.9132791   L 63.961353,9.1138211   L 63.801449,7.9945799   L 63.481643,7.195122   L 62.682126,6.395664   L 61.882609,5.596206   L 63.801449,5.1165312   L 65.880193,4.796748   L 67.958937,4.6368564   L 70.037681,4.6368564   L 71.956522,4.796748   L 74.035266,5.4363144   L 76.273913,5.9159892   L 77.713043,6.7154472   L 76.913527,7.8346883   L 76.273913,9.4336043   L 75.6343,11.192412   L 75.6343,12.791328   L 75.954106,14.390244   L 76.273913,15.02981   L 76.753623,15.829268   L 77.233333,15.98916   L 78.03285,16.628726   L 81.230918,16.628726   L 81.710628,16.308943   L 82.829952,15.189702   L 83.309662,14.230352   L 83.629469,12.631436   L 83.629469,11.03252   L 83.309662,9.4336043   L 82.829952,7.9945799   L 82.030435,6.7154472   L 84.428986,5.596206   L 86.827536,4.796748   L 89.226087,4.796748   L 91.784541,5.1165312   L 95.302415,5.9159892   L 96.901449,6.7154472   L 97.700966,7.195122   L 98.180676,7.8346883   L 97.86087,8.6341463   L 97.381159,10.233062   L 96.901449,11.831978   L 96.901449,12.631436   L 97.061353,13.430894   L 97.700966,14.390244   L 98.500483,15.189702   L 99.140097,15.829268   L 99.939614,15.98916   L 101.37874,15.98916   L 102.17826,15.829268   L 102.65797,15.189702   L 103.13768,14.710027   L 103.77729,13.910569   L 103.9372,12.791328   L 103.9372,11.99187   L 103.77729,11.03252   L 103.45749,9.9132791   L 102.97778,8.7940379   L 102.17826,7.8346883   L 104.57681,6.395664   L 107.13527,5.596206   L 110.01353,5.1165312   L 112.73188,4.796748   L 115.61014,4.796748   L 118.48841,5.1165312   L 121.52657,5.4363144   L 124.08502,5.9159892   L 122.00628,7.195122   L 120.40725,8.6341463   L 119.28792,10.233062   L 119.12802,11.03252   L 119.12802,11.831978   L 119.12802,12.631436   L 119.28792,13.430894   L 119.92754,13.910569   L 120.40725,14.710027   L 121.20676,15.189702   L 122.32609,15.509485   L 123.60531,15.829268   L 125.20435,15.98916   L 126.96329,15.829268   L 128.56232,15.189702   L 130.16135,14.230352   L 131.28068,12.631436   L 131.76039,11.03252   L 132.08019,9.4336043   L 132.08019,8.6341463   L 131.60048,7.5149051   L 131.28068,6.7154472   L 130.48116,5.9159892   L 133.67923,5.9159892   L 136.55749,6.395664   L 139.43575,7.195122   L 142.15411,8.6341463   L 141.35459,10.233062   L 141.03478,11.99187   L 141.35459,13.910569   L 141.51449,15.829268   L 142.63382,17.108401   L 143.11353,17.588076   L 143.75314,18.227642   L 144.55266,18.387534   L 145.51208,18.227642   L 146.31159,17.907859   L 147.43092,17.588076   L 148.39034,16.628726   L 149.02995,15.509485   L 149.02995,14.390244   L 149.02995,13.111111   L 148.39034,11.831978   L 147.91063,10.712737   L 147.11111,9.5934959   L 146.31159,8.7940379   L 147.91063,7.8346883   L 149.98937,6.7154472   L 152.70773,5.9159892   L 155.42609,5.1165312   L 157.98454,4.796748   L 160.7029,4.796748   L 162.78164,5.596206   L 163.74106,5.9159892   L 164.54058,6.7154472   L 163.58116,7.5149051   L 162.78164,8.6341463   L 161.98213,9.5934959   L 161.50242,11.03252   L 161.18261,12.311653   L 161.50242,13.430894   L 161.98213,14.390244   L 162.78164,15.509485   L 163.74106,15.98916   L 164.54058,16.308943   L 166.45942,16.308943   L 167.25894,15.98916   L 167.73865,15.509485   L 169.17778,14.230352   L 169.97729,12.311653   L 170.1372,10.392954   L 169.97729,9.4336043   L 169.65749,8.6341463   L 169.33768,7.8346883   L 168.85797,6.7154472   L 170.457,6.2357724   L 172.21594,5.9159892   L 174.45459,5.596206   L 176.21353,5.9159892   L 178.45217,6.2357724   L 180.21111,6.7154472   L 182.28986,7.5149051   L 184.2087,8.6341463   L 183.08937,9.5934959   L 182.28986,11.192412   L 181.33043,13.111111   L 180.69082,15.02981   L 180.69082,16.628726   L 180.69082,17.428184   L 181.01063,17.907859   L 181.49034,18.387534   L 182.28986,18.707317   L 183.40918,18.867209   L 184.5285,18.867209   L 186.12754,18.707317   L 187.08696,18.227642   L 187.72657,17.428184   L 188.20628,16.628726   L 188.36618,15.509485   L 188.36618,14.230352   L 188.36618,11.831978   L 188.36618,9.5934959   L 188.68599,8.6341463   L 189.0058,7.8346883   L 189.80531,7.195122   L 190.76473,7.0352304   L 192.20386,7.0352304   L 194.28261,7.195122   L 195.40193,7.5149051   L 196.20145,7.9945799   L 196.68116,8.6341463   L 196.84106,9.4336043   L 197.16087,10.712737   L 197.16087,12.311653   L 197.16087,13.590786   L 197.48068,15.02981   L 197.64058,15.509485   L 198.28019,15.98916   L 199.07971,16.628726   L 200.35894,16.788618   L 201.95797,16.788618   L 203.2372,16.628726   L 204.03671,15.829268   L 204.51643,14.710027   L 204.51643,13.430894   L 204.03671,11.831978   L 203.557,10.392954   L 202.43768,9.1138211   L 203.2372,8.3143631   L 204.51643,7.8346883   L 205.95556,7.195122   L 207.55459,7.0352304   L 210.75266,6.395664   L 212.8314,6.395664   L 216.02947,7.0352304   L 217.6285,7.195122   L 218.42802,7.0352304   L 218.58792,7.0352304   L 219.06763,6.2357724   L 219.86715,5.4363144   L 219.86715,5.1165312   L 219.86715,4.6368564   L 219.38744,4.3170732   L 218.58792,3.99729   L 216.18937,3.5176152   L 213.79082,3.197832   L 211.55217,3.197832   L 208.83382,3.5176152   L 207.71449,3.8373984   L 206.75507,3.99729   L 204.35652,5.4363144   L 201.95797,6.395664   L 200.83865,7.0352304   L 199.07971,7.0352304   L 197.96039,6.7154472   L 196.20145,5.9159892   L 193.9628,5.4363144   L 192.68357,5.1165312   L 191.56425,5.1165312   L 189.80531,5.4363144   L 188.20628,5.9159892   L 186.92705,6.2357724   L 185.32802,6.395664   L 183.40918,6.2357724   L 181.81014,5.596206   L 178.61208,4.6368564   L 177.01304,3.99729   L 175.41401,3.8373984   L 173.65507,3.5176152   L 171.73623,3.8373984   L 168.05845,4.3170732   L 164.86039,3.99729   L 163.26135,3.8373984   L 161.66232,3.5176152   L 160.06329,3.197832   L 158.46425,3.0379404   L 154.62657,3.0379404   L 150.78889,3.8373984   L 149.18986,4.6368564   L 147.43092,5.4363144   L 145.51208,6.395664   L 143.91304,6.7154472   L 143.11353,6.7154472   L 142.31401,6.395664   L 140.23527,5.596206   L 138.47633,4.6368564   L 136.55749,3.99729   L 134.15894,3.8373984   L 131.76039,3.99729   L 126.96329,3.99729   L 120.08744,3.0379404   L 116.72947,2.7181572   L 113.21159,2.7181572   L 109.53382,3.197832   L 105.85604,3.8373984   L 103.13768,4.6368564   L 101.53865,4.796748   L 100.25942,4.796748   L 97.86087,4.3170732   L 93.863285,3.5176152   L 90.505314,3.0379404   L 86.98744,2.7181572   L 83.149758,3.197832   L 79.631884,3.8373984   L 75.954106,3.8373984   L 72.436232,3.0379404   L 70.677295,2.7181572   L 69.078261,2.7181572   L 66.67971,3.0379404   L 64.281159,3.5176152   L 62.202415,3.99729   L 59.963768,3.99729   L 58.524638,3.5176152   L 56.925604,2.7181572   L 55.32657,1.9186992   L 53.407729,1.4390244   L 49.250242,0.79945799   L 44.93285,0.6395664  z   "
     id="path1119" />
</svg>
