<?xml version="1.0" encoding="UTF-8" standalone="no"?>
<svg
   xmlns:dc="http://purl.org/dc/elements/1.1/"
   xmlns:cc="http://creativecommons.org/ns#"
   xmlns:rdf="http://www.w3.org/1999/02/22-rdf-syntax-ns#"
   xmlns:svg="http://www.w3.org/2000/svg"
   xmlns="http://www.w3.org/2000/svg"
   xmlns:sodipodi="http://sodipodi.sourceforge.net/DTD/sodipodi-0.dtd"
   xmlns:inkscape="http://www.inkscape.org/namespaces/inkscape"
   version="1.0"
   width="60.325mm"
   height="5.5121529mm"
   id="svg1083"
   sodipodi:docname="separator-branch.svg"
   inkscape:version="0.92.2 (5c3e80d, 2017-08-06)">
  <metadata
     id="metadata1087">
    <rdf:RDF>
      <cc:Work
         rdf:about="">
        <dc:format>image/svg+xml</dc:format>
        <dc:type
           rdf:resource="http://purl.org/dc/dcmitype/StillImage" />
        <dc:title></dc:title>
      </cc:Work>
    </rdf:RDF>
  </metadata>
  <sodipodi:namedview
     pagecolor="#ffffff"
     bordercolor="#666666"
     borderopacity="1"
     objecttolerance="10"
     gridtolerance="10"
     guidetolerance="10"
     inkscape:pageopacity="0"
     inkscape:pageshadow="2"
     inkscape:window-width="1680"
     inkscape:window-height="997"
     id="namedview1085"
     showgrid="false"
     inkscape:zoom="6.6885964"
     inkscape:cx="114"
     inkscape:cy="10.416666"
     inkscape:window-x="-8"
     inkscape:window-y="-8"
     inkscape:window-maximized="1"
     inkscape:current-layer="svg1083" />
  <defs
     id="defs1079">
    <pattern
       id="WMFhbasepattern"
       patternUnits="userSpaceOnUse"
       width="6"
       height="6"
       x="0"
       y="0" />
  </defs>
  <path
     style="fill:#7c7f91;fill-rule:evenodd;fill-opacity:1;stroke:none;"
     d="  M 20.959387,0.64082687   L 19.679424,1.4418605   L 18.559457,2.7235142   L 17.75948,4.005168   L 15.999532,6.8888889   L 15.199555,8.0103359   L 14.079588,8.8113695   L 11.199672,8.8113695   L 6.7198034,8.0103359   L 4.6398642,7.6899225   L 2.7199204,7.6899225   L 1.1199672,8.0103359   L 0.79997659,8.3307494   L 0.63998127,8.4909561   L 0.79997659,9.2919897   L 1.4399579,9.6124031   L 3.039911,10.093023   L 4.7998596,10.73385   L 5.9198268,10.894057   L 6.0798221,11.534884   L 6.0798221,12.175711   L 6.7198034,14.899225   L 6.8797987,16.020672   L 7.51978,16.981912   L 7.9997659,17.302326   L 8.4797519,17.622739   L 9.1197331,17.302326   L 9.5997191,16.821705   L 9.5997191,16.020672   L 9.2797285,15.219638   L 9.1197331,14.098191   L 7.9997659,12.015504   L 7.1997893,10.894057   L 10.879682,11.534884   L 14.879565,11.69509   L 19.199438,12.015504   L 20.639396,12.496124   L 22.239349,12.976744   L 22.879331,13.617571   L 23.359316,14.418605   L 24.95927,16.501292   L 25.759246,17.622739   L 26.879213,18.583979   L 27.839185,19.385013   L 29.279143,20.02584   L 32.159059,20.02584   L 32.319054,19.705426   L 32.319054,19.224806   L 32.159059,18.583979   L 30.719101,17.622739   L 27.039209,14.899225   L 23.839302,12.976744   L 35.038975,13.617571   L 48.318586,13.617571   L 50.078535,13.777778   L 51.998478,14.098191   L 53.918422,14.899225   L 54.718399,15.219638   L 55.35838,15.700258   L 56.958333,16.821705   L 58.558287,17.782946   L 59.358263,18.103359   L 60.47823,18.103359   L 60.798221,17.782946   L 60.958216,17.782946   L 60.958216,16.981912   L 60.47823,16.180879   L 59.678254,15.379845   L 57.278324,13.297158   L 63.838132,12.976744   L 70.877926,12.496124   L 73.917837,12.496124   L 77.117743,12.976744   L 80.31765,13.617571   L 83.197566,14.578811   L 84.797519,15.700258   L 87.997425,17.302326   L 89.597378,17.782946   L 90.877341,18.103359   L 91.517322,17.782946   L 91.677317,17.622739   L 91.997308,17.302326   L 91.997308,16.821705   L 91.517322,15.700258   L 90.717346,15.219638   L 89.917369,14.418605   L 88.637406,13.777778   L 86.237477,12.816537   L 84.317533,12.175711   L 97.597144,11.534884   L 104.47694,11.21447   L 108.63682,11.21447   L 111.03675,11.534884   L 112.15672,12.015504   L 112.95669,12.816537   L 114.71664,14.418605   L 115.83661,15.700258   L 117.91655,17.622739   L 118.71653,18.423773   L 119.83649,18.583979   L 120.63647,18.583979   L 121.11646,18.423773   L 121.43645,17.782946   L 121.43645,16.981912   L 121.11646,16.180879   L 120.31648,15.219638   L 119.35651,14.098191   L 115.51662,10.894057   L 122.39642,10.73385   L 130.39618,10.093023   L 134.39607,10.093023   L 138.07596,10.413437   L 141.59586,10.894057   L 144.79576,11.69509   L 145.59574,12.175711   L 146.55571,12.976744   L 148.15566,14.899225   L 149.27563,15.700258   L 150.07561,16.501292   L 151.03558,16.821705   L 152.47554,16.981912   L 153.43551,16.821705   L 154.23549,16.501292   L 154.55548,15.700258   L 154.23549,15.219638   L 153.7555,14.418605   L 153.27551,13.617571   L 151.35557,12.015504   L 164.31519,12.496124   L 171.035,12.496124   L 173.27493,12.816537   L 174.3949,12.976744   L 174.87488,13.617571   L 175.67486,14.578811   L 176.31484,16.020672   L 177.11482,16.821705   L 178.71477,17.622739   L 180.47472,18.583979   L 181.59469,18.904393   L 182.39466,18.904393   L 182.87465,18.423773   L 183.35463,17.302326   L 183.19464,16.821705   L 182.39466,16.180879   L 180.31472,14.899225   L 176.31484,12.976744   L 191.83439,12.816537   L 200.15414,12.816537   L 203.35405,12.976744   L 204.954,13.297158   L 206.23397,14.418605   L 208.3139,16.821705   L 209.59387,17.622739   L 211.03382,18.103359   L 211.8338,18.103359   L 212.31379,17.782946   L 212.63378,16.981912   L 212.63378,16.501292   L 211.9938,15.700258   L 211.51381,14.899225   L 210.71383,14.098191   L 209.11388,12.976744   L 207.83392,12.015504   L 216.31367,11.534884   L 220.47355,11.21447   L 222.55349,10.73385   L 224.15344,10.093023   L 225.5934,9.1317829   L 226.87336,7.6899225   L 227.19335,6.8888889   L 227.19335,6.4082687   L 226.55337,6.0878553   L 224.95342,6.0878553   L 223.19347,6.4082687   L 224.15344,5.2868217   L 225.27341,4.3255814   L 226.39338,3.2041344   L 226.55337,2.7235142   L 226.55337,1.9224806   L 226.55337,1.4418605   L 226.39338,1.121447   L 226.07338,0.80103359   L 225.75339,0.80103359   L 224.79342,1.4418605   L 223.67346,2.2428941   L 221.59352,4.3255814   L 221.11353,5.2868217   L 219.99356,6.0878553   L 218.7136,6.7286822   L 215.67369,7.6899225   L 212.31379,8.3307494   L 208.79389,8.4909561   L 201.7541,9.1317829   L 195.03429,9.1317829   L 199.03418,5.2868217   L 201.11412,3.2041344   L 201.91409,2.2428941   L 201.91409,1.6020672   L 201.43411,0.80103359   L 200.63413,0.64082687   L 199.83415,0.80103359   L 199.03418,1.6020672   L 197.43422,3.5245478   L 195.83427,5.126615   L 194.8743,6.7286822   L 194.07432,7.6899225   L 193.43434,8.4909561   L 191.67439,9.2919897   L 190.07444,9.6124031   L 179.51475,9.6124031   L 165.11517,9.1317829   L 168.63507,5.6072351   L 169.43504,4.4857881   L 170.23502,3.5245478   L 170.39501,2.4031008   L 170.23502,1.6020672   L 169.91503,1.4418605   L 169.43504,1.121447   L 168.63507,1.121447   L 167.5151,1.6020672   L 166.39513,2.4031008   L 164.63518,4.3255814   L 163.51522,5.2868217   L 162.55524,6.8888889   L 161.91526,7.6899225   L 161.43528,8.3307494   L 159.83532,8.8113695   L 158.55536,9.1317829   L 155.83544,9.1317829   L 148.63565,8.4909561   L 134.39607,7.5297158   L 138.07596,4.8062016   L 139.19593,4.005168   L 139.9959,3.2041344   L 140.47589,2.4031008   L 140.47589,2.2428941   L 140.1559,1.6020672   L 139.67591,1.4418605   L 138.87594,1.4418605   L 138.07596,1.9224806   L 137.11599,2.4031008   L 134.71606,4.4857881   L 132.47612,5.9276486   L 131.67615,6.7286822   L 130.71618,6.8888889   L 127.83626,7.5297158   L 125.43633,7.6899225   L 117.43656,7.6899225   L 112.15672,7.5297158   L 107.03687,7.5297158   L 108.47683,6.0878553   L 110.07678,4.4857881   L 110.87676,3.6847545   L 111.03675,3.0439276   L 111.03675,1.9224806   L 110.55676,1.4418605   L 110.07678,0.80103359   L 109.4368,0.80103359   L 108.47683,1.121447   L 107.35686,1.6020672   L 106.23689,2.7235142   L 104.63694,5.126615   L 103.35698,6.4082687   L 102.397,7.2093023   L 100.79705,7.6899225   L 97.277154,8.4909561   L 93.277271,9.1317829   L 88.797402,9.2919897   L 79.997659,9.1317829   L 72.957865,9.1317829   L 74.557818,8.0103359   L 76.637757,6.4082687   L 77.757725,5.2868217   L 78.237711,4.4857881   L 78.557701,3.5245478   L 78.557701,3.2041344   L 78.557701,2.7235142   L 77.91772,2.2428941   L 77.437734,1.9224806   L 76.317767,1.9224806   L 75.357795,2.7235142   L 74.237828,3.6847545   L 72.157889,6.0878553   L 70.877926,7.6899225   L 69.757959,8.3307494   L 68.477996,9.1317829   L 65.27809,9.9328165   L 61.598198,10.093023   L 57.598315,10.413437   L 49.598549,10.093023   L 43.038741,9.9328165   L 44.638694,8.4909561   L 45.918656,6.8888889   L 47.198619,5.6072351   L 47.998596,4.3255814   L 47.998596,3.5245478   L 47.678605,3.2041344   L 47.51861,3.2041344   L 45.918656,3.6847545   L 43.518727,5.6072351   L 41.118797,7.6899225   L 39.198853,8.8113695   L 38.238881,9.2919897   L 37.118914,9.6124031   L 33.759012,9.6124031   L 16.479518,8.8113695   L 19.359434,6.8888889   L 20.959387,5.9276486   L 22.879331,4.4857881   L 23.839302,3.2041344   L 24.479284,2.7235142   L 24.479284,1.9224806   L 24.479284,1.6020672   L 23.839302,1.121447   L 23.359316,0.80103359   L 22.239349,0.64082687  z "
     id="path1081" />
</svg>
