<?xml version="1.0" encoding="UTF-8" standalone="no"?>
<svg
   xmlns:dc="http://purl.org/dc/elements/1.1/"
   xmlns:cc="http://creativecommons.org/ns#"
   xmlns:rdf="http://www.w3.org/1999/02/22-rdf-syntax-ns#"
   xmlns:svg="http://www.w3.org/2000/svg"
   xmlns="http://www.w3.org/2000/svg"
   xmlns:sodipodi="http://sodipodi.sourceforge.net/DTD/sodipodi-0.dtd"
   xmlns:inkscape="http://www.inkscape.org/namespaces/inkscape"
   version="1.0"
   width="31.529513mm"
   height="2.954514mm"
   id="svg1064"
   sodipodi:docname="separator3.svg"
   inkscape:version="0.92.2 (5c3e80d, 2017-08-06)">
  <metadata
     id="metadata1068">
    <rdf:RDF>
      <cc:Work
         rdf:about="">
        <dc:format>image/svg+xml</dc:format>
        <dc:type
           rdf:resource="http://purl.org/dc/dcmitype/StillImage" />
        <dc:title></dc:title>
      </cc:Work>
    </rdf:RDF>
  </metadata>
  <sodipodi:namedview
     pagecolor="#ffffff"
     bordercolor="#666666"
     borderopacity="1"
     objecttolerance="10"
     gridtolerance="10"
     guidetolerance="10"
     inkscape:pageopacity="0"
     inkscape:pageshadow="2"
     inkscape:window-width="1680"
     inkscape:window-height="997"
     id="namedview1066"
     showgrid="false"
     inkscape:zoom="12.797203"
     inkscape:cx="59.583331"
     inkscape:cy="5.5833336"
     inkscape:window-x="-8"
     inkscape:window-y="-8"
     inkscape:window-maximized="1"
     inkscape:current-layer="svg1064" />
  <defs
     id="defs1060">
    <pattern
       id="WMFhbasepattern"
       patternUnits="userSpaceOnUse"
       width="6"
       height="6"
       x="0"
       y="0" />
  </defs>
  <path
     style="fill:#dbbde5;fill-rule:evenodd;fill-opacity:1;stroke:none;"
     d="  M 114.04167,4.7826087   L 110.04301,5.2608696   L 105.56452,5.5797101   L 100.92608,5.7391304   L 91.329301,5.7391304   L 89.729839,5.5797101   L 87.170699,5.7391304   L 86.051075,5.7391304   L 85.091398,6.057971   L 84.771505,6.2173913   L 84.611559,6.3768116   L 84.611559,6.6956522   L 84.611559,6.8550725   L 84.931452,7.173913   L 85.41129,7.173913   L 86.69086,7.3333333   L 88.930108,7.4927536   L 93.408602,7.6521739   L 97.887097,7.6521739   L 102.36559,7.4927536   L 111.32258,7.0144928   L 113.24194,7.0144928   L 115.32124,6.8550725   L 115.96102,6.5362319   L 117.08065,6.057971   L 117.72043,5.8985507   L 118.04032,5.5797101   L 118.20027,5.2608696   L 117.88038,5.1014493   L 116.76075,4.942029   L 115.80108,4.7826087   L 114.04167,4.7826087  z    M 74.534946,3.5072464   L 74.215054,3.6666667   L 73.735215,3.826087   L 73.415323,3.9855072   L 73.255376,4.3043478   L 72.615591,5.2608696   L 72.615591,6.2173913   L 72.775538,7.173913   L 73.255376,7.6521739   L 73.575269,7.9710145   L 73.895161,8.1304348   L 74.534946,8.2898551   L 75.334677,8.2898551   L 76.134409,7.8115942   L 76.774194,7.173913   L 77.094086,6.2173913   L 77.254032,5.4202899   L 76.93414,4.7826087   L 76.774194,4.4637681   L 76.454301,4.1449275   L 76.134409,3.9855072   L 75.65457,3.9855072   L 75.014785,3.6666667   L 74.534946,3.5072464  z    M 28.790323,5.7391304   L 23.991935,5.8985507   L 19.033602,6.2173913   L 14.075269,6.5362319   L 11.516129,6.5362319   L 9.1169355,6.3768116   L 4.1586022,6.2173913   L 2.0793011,6.2173913   L 1.5994624,6.3768116   L 1.1196237,6.3768116   L 0.95967742,6.6956522   L 0.79973118,7.0144928   L 0.95967742,7.3333333   L 1.4395161,7.4927536   L 2.3991935,7.9710145   L 4.1586022,8.4492754   L 6.077957,8.7681159   L 8.1572581,8.9275362   L 10.236559,8.9275362   L 12.155914,8.7681159   L 16.314516,8.4492754   L 20.313172,7.9710145   L 24.951613,7.6521739   L 29.590054,7.4927536   L 31.989247,7.6521739   L 33.748656,7.6521739   L 34.068548,7.4927536   L 34.388441,7.0144928   L 34.388441,6.5362319   L 34.228495,6.2173913   L 33.748656,5.8985507   L 31.349462,5.8985507   L 28.790323,5.7391304  z    M 41.426075,3.826087   L 40.946237,3.9855072   L 40.626344,4.1449275   L 40.146505,4.4637681   L 39.666667,5.4202899   L 39.50672,6.3768116   L 39.666667,7.3333333   L 39.826613,7.8115942   L 39.986559,8.2898551   L 40.306452,8.6086957   L 40.78629,8.7681159   L 41.266129,8.9275362   L 41.905914,8.9275362   L 42.385753,8.7681159   L 42.865591,8.4492754   L 43.505376,7.8115942   L 44.145161,6.8550725   L 44.465054,5.8985507   L 44.465054,4.942029   L 44.305108,4.6231884   L 43.985215,4.1449275   L 43.505376,3.9855072   L 43.185484,3.826087   L 41.426075,3.826087  z    M 59.180108,0.79710145   L 58.060484,0.95652174   L 57.100806,1.4347826   L 55.501344,2.3913043   L 54.221774,3.5072464   L 53.741935,4.1449275   L 53.262097,4.942029   L 53.102151,5.7391304   L 52.942204,6.6956522   L 53.102151,7.8115942   L 53.422043,8.6086957   L 53.901882,9.4057971   L 54.701613,9.884058   L 55.501344,10.202899   L 56.461022,10.362319   L 58.380376,10.362319   L 59.819892,10.202899   L 60.77957,9.884058   L 61.739247,9.4057971   L 62.698925,8.6086957   L 63.33871,7.6521739   L 63.818548,6.6956522   L 63.978495,5.5797101   L 63.818548,4.4637681   L 63.33871,3.3478261   L 62.858871,2.5507246   L 62.05914,1.7536232   L 61.259409,1.2753623   L 60.299731,0.95652174   L 59.180108,0.79710145  z   "
     id="path1062" />
</svg>
