<?xml version="1.0" encoding="UTF-8" standalone="no"?>
<svg
   xmlns:dc="http://purl.org/dc/elements/1.1/"
   xmlns:cc="http://creativecommons.org/ns#"
   xmlns:rdf="http://www.w3.org/1999/02/22-rdf-syntax-ns#"
   xmlns:svg="http://www.w3.org/2000/svg"
   xmlns="http://www.w3.org/2000/svg"
   xmlns:sodipodi="http://sodipodi.sourceforge.net/DTD/sodipodi-0.dtd"
   xmlns:inkscape="http://www.inkscape.org/namespaces/inkscape"
   version="1.0"
   width="49.962151mm"
   height="5.159375mm"
   id="svg1140"
   sodipodi:docname="separator-wave.svg"
   inkscape:version="0.92.2 (5c3e80d, 2017-08-06)">
  <metadata
     id="metadata1144">
    <rdf:RDF>
      <cc:Work
         rdf:about="">
        <dc:format>image/svg+xml</dc:format>
        <dc:type
           rdf:resource="http://purl.org/dc/dcmitype/StillImage" />
        <dc:title></dc:title>
      </cc:Work>
    </rdf:RDF>
  </metadata>
  <sodipodi:namedview
     pagecolor="#ffffff"
     bordercolor="#666666"
     borderopacity="1"
     objecttolerance="10"
     gridtolerance="10"
     guidetolerance="10"
     inkscape:pageopacity="0"
     inkscape:pageshadow="2"
     inkscape:window-width="716"
     inkscape:window-height="405"
     id="namedview1142"
     showgrid="false"
     inkscape:zoom="8.075905"
     inkscape:cx="94.416663"
     inkscape:cy="9.7500004"
     inkscape:window-x="156"
     inkscape:window-y="156"
     inkscape:window-maximized="0"
     inkscape:current-layer="svg1140" />
  <defs
     id="defs1136">
    <pattern
       id="WMFhbasepattern"
       patternUnits="userSpaceOnUse"
       width="6"
       height="6"
       x="0"
       y="0" />
  </defs>
  <path
     style="fill:#ffffff;fill-rule:evenodd;fill-opacity:1;stroke:none;"
     d="  M 1.9202714,7.9889807   L 1.4402036,8.3085399   L 0.80011309,8.6280992   L 0.64009047,9.107438   L 0.64009047,9.7465565   L 0.64009047,10.545455   L 0.80011309,11.024793   L 1.2801809,11.504132   L 2.080294,11.823691   L 2.7203845,11.823691   L 3.5204976,11.504132   L 4.1605881,10.865014   L 4.4806333,10.225895   L 4.4806333,9.2672176   L 4.1605881,8.9476584   L 3.8405428,8.4683196   L 3.2004524,8.3085399   L 2.5603619,7.9889807   L 1.9202714,7.9889807  z    M 186.26633,8.4683196   L 185.46621,8.6280992   L 184.50608,9.107438   L 183.86599,9.7465565   L 183.54594,10.385675   L 183.2259,11.184573   L 183.54594,11.823691   L 184.18603,12.46281   L 184.98615,12.942149   L 185.62624,13.101928   L 186.1063,12.942149   L 186.90642,12.782369   L 187.54651,11.823691   L 188.02658,11.024793   L 188.02658,10.225895   L 187.70653,9.2672176   L 187.06644,8.6280992   L 186.7464,8.4683196   L 186.26633,8.4683196  z    M 53.7676,0.63911846   L 52.167373,0.79889807   L 50.407125,1.2782369   L 49.126944,1.5977961   L 47.846763,2.5564738   L 46.566582,3.3553719   L 45.446424,4.4738292   L 41.445858,8.9476584   L 39.525587,10.545455   L 38.565451,11.184573   L 37.28527,11.823691   L 36.165112,12.30303   L 34.884931,12.30303   L 33.60475,12.143251   L 32.324569,11.663912   L 31.204411,10.865014   L 30.404297,9.9063361   L 28.644049,7.9889807   L 27.043822,6.0716253   L 26.083687,5.2727273   L 25.123551,4.6336088   L 23.523325,3.9944904   L 22.243144,3.5151515   L 19.522759,3.5151515   L 18.242578,3.8347107   L 16.962398,4.15427   L 15.682217,4.7933884   L 14.402036,5.4325069   L 13.121855,7.1900826   L 12.161719,8.4683196   L 11.201583,9.9063361   L 10.561493,11.504132   L 10.40147,12.782369   L 10.40147,13.101928   L 10.40147,13.581267   L 10.881538,14.060606   L 11.681651,14.060606   L 12.161719,13.741047   L 12.801809,12.46281   L 13.4419,11.184573   L 13.761945,10.225895   L 14.402036,9.2672176   L 15.202149,8.3085399   L 16.322307,7.6694215   L 17.442465,7.030303   L 18.882669,6.5509642   L 21.443031,6.5509642   L 22.723212,7.030303   L 23.84337,7.6694215   L 25.123551,8.3085399   L 25.923664,9.2672176   L 27.043822,10.225895   L 28.644049,12.46281   L 29.604184,13.421488   L 30.404297,14.380165   L 31.524456,15.019284   L 32.804637,15.658402   L 34.084818,15.977961   L 35.525021,15.977961   L 36.805202,15.658402   L 38.085383,15.338843   L 39.205541,14.859504   L 40.165677,14.060606   L 42.085949,12.46281   L 44.00622,10.545455   L 47.206672,7.1900826   L 48.966921,5.7520661   L 50.567147,4.4738292   L 51.527283,3.9944904   L 52.487419,3.5151515   L 54.40769,3.5151515   L 55.367826,3.8347107   L 56.327962,4.15427   L 57.288097,5.1129477   L 58.248233,6.0716253   L 60.008482,8.3085399   L 61.768731,10.385675   L 63.208934,12.46281   L 64.80916,14.380165   L 65.929319,15.019284   L 67.049477,15.658402   L 68.009613,16.297521   L 69.129771,16.61708   L 70.409952,16.77686   L 71.690133,16.61708   L 73.130336,16.297521   L 74.890585,15.658402   L 76.010744,15.019284   L 77.290925,14.380165   L 79.531241,12.46281   L 82.091603,10.865014   L 84.491942,8.9476584   L 85.772123,8.3085399   L 87.052304,7.6694215   L 88.332485,7.1900826   L 90.892847,7.1900826   L 92.173028,7.6694215   L 93.613232,8.3085399   L 94.893412,9.2672176   L 96.653661,11.184573   L 98.093865,13.101928   L 99.854114,14.859504   L 101.45434,16.61708   L 102.41448,17.256198   L 103.37461,17.895317   L 104.33475,18.214876   L 105.29488,18.534435   L 106.57506,18.534435   L 107.69522,18.214876   L 108.9754,18.055096   L 110.41561,17.415978   L 112.17586,16.137741   L 114.09613,14.380165   L 116.17642,12.46281   L 118.25671,10.545455   L 120.49703,9.107438   L 121.45717,8.6280992   L 122.73735,8.3085399   L 123.85751,7.9889807   L 124.97766,7.9889807   L 125.9378,8.4683196   L 127.21798,8.9476584   L 128.33814,9.7465565   L 129.13825,10.865014   L 130.8985,13.101928   L 132.65875,15.498623   L 133.61889,16.297521   L 134.73904,17.256198   L 136.49929,17.895317   L 138.09952,18.055096   L 139.85977,17.895317   L 141.62002,17.415978   L 143.06022,16.61708   L 144.50042,15.498623   L 147.06079,13.101928   L 149.46113,10.865014   L 150.74131,9.7465565   L 152.02149,8.6280992   L 153.46169,7.6694215   L 155.22194,7.1900826   L 155.86203,7.030303   L 156.66214,7.030303   L 157.46226,7.1900826   L 158.10235,7.6694215   L 159.38253,8.3085399   L 160.34266,9.2672176   L 161.78287,11.663912   L 162.58298,12.782369   L 163.54312,13.741047   L 164.50325,14.859504   L 165.78343,15.498623   L 167.54368,15.977961   L 169.14391,16.137741   L 170.90416,15.977961   L 172.34436,15.498623   L 173.94459,14.699725   L 175.38479,13.741047   L 176.66497,12.782369   L 177.94515,11.504132   L 179.86542,9.107438   L 180.98558,7.8292011   L 181.62567,6.3911846   L 182.26576,5.2727273   L 182.42578,4.6336088   L 182.26576,3.9944904   L 181.78569,3.3553719   L 180.98558,2.8760331   L 180.34549,3.1955923   L 179.86542,3.3553719   L 179.7054,3.8347107   L 178.10517,5.9118457   L 176.50495,7.9889807   L 174.58468,9.9063361   L 172.6644,11.663912   L 171.54425,12.30303   L 170.42409,12.46281   L 169.46395,12.782369   L 168.18377,12.782369   L 167.06361,12.46281   L 166.10348,11.823691   L 164.8233,11.024793   L 163.70314,9.7465565   L 161.94289,7.8292011   L 161.14278,6.7107438   L 160.34266,5.9118457   L 159.2225,5.2727273   L 158.10235,4.7933884   L 156.82217,4.4738292   L 155.38196,4.4738292   L 154.10178,4.6336088   L 152.98162,5.1129477   L 152.02149,5.4325069   L 150.90133,6.0716253   L 148.98106,7.6694215   L 147.06079,9.2672176   L 145.30054,11.024793   L 143.38027,12.46281   L 142.42013,13.421488   L 141.29997,14.060606   L 140.33984,14.380165   L 139.05966,14.859504   L 137.77947,14.859504   L 136.65932,14.699725   L 135.53916,14.220386   L 134.73904,13.421488   L 133.93893,12.46281   L 133.29884,11.663912   L 131.69861,9.5867769   L 130.73848,8.3085399   L 129.61832,7.1900826   L 128.49816,6.3911846   L 127.53803,5.7520661   L 126.25785,5.4325069   L 125.13769,5.2727273   L 123.05739,5.2727273   L 121.93723,5.7520661   L 120.65705,6.0716253   L 118.57676,7.3498623   L 116.17642,8.9476584   L 114.09613,10.865014   L 112.33588,12.143251   L 110.41561,13.581267   L 109.61549,14.220386   L 108.49534,14.699725   L 107.5352,14.859504   L 106.41504,15.019284   L 105.13486,15.019284   L 104.0147,14.699725   L 103.05457,14.060606   L 101.93441,13.421488   L 100.17416,11.504132   L 98.733955,9.7465565   L 96.973707,7.6694215   L 95.053435,5.9118457   L 93.773254,5.1129477   L 92.813118,4.6336088   L 91.532938,4.15427   L 89.932711,3.9944904   L 88.492508,4.15427   L 86.892282,4.4738292   L 85.292055,5.1129477   L 83.851852,5.9118457   L 81.29149,7.6694215   L 78.731128,9.5867769   L 76.330789,11.184573   L 75.050608,12.143251   L 73.770427,12.782369   L 72.490246,13.101928   L 71.210065,13.421488   L 69.769861,13.421488   L 68.329658,12.942149   L 67.2095,12.30303   L 66.409386,11.504132   L 65.289228,10.545455   L 64.489115,9.5867769   L 61.448685,5.2727273   L 60.48855,3.9944904   L 59.368391,2.8760331   L 58.08821,2.077135   L 56.648007,1.2782369   L 55.367826,0.79889807   L 53.7676,0.63911846  z   "
     id="path1138" />
</svg>
