<?xml version="1.0" encoding="UTF-8" standalone="no"?>
<svg
   xmlns:dc="http://purl.org/dc/elements/1.1/"
   xmlns:cc="http://creativecommons.org/ns#"
   xmlns:rdf="http://www.w3.org/1999/02/22-rdf-syntax-ns#"
   xmlns:svg="http://www.w3.org/2000/svg"
   xmlns="http://www.w3.org/2000/svg"
   xmlns:sodipodi="http://sodipodi.sourceforge.net/DTD/sodipodi-0.dtd"
   xmlns:inkscape="http://www.inkscape.org/namespaces/inkscape"
   version="1.0"
   width="45.905208mm"
   height="4.7184029mm"
   id="svg1159"
   sodipodi:docname="separator-wave2.svg"
   inkscape:version="0.92.2 (5c3e80d, 2017-08-06)">
  <metadata
     id="metadata1163">
    <rdf:RDF>
      <cc:Work
         rdf:about="">
        <dc:format>image/svg+xml</dc:format>
        <dc:type
           rdf:resource="http://purl.org/dc/dcmitype/StillImage" />
        <dc:title></dc:title>
      </cc:Work>
    </rdf:RDF>
  </metadata>
  <sodipodi:namedview
     pagecolor="#ffffff"
     bordercolor="#666666"
     borderopacity="1"
     objecttolerance="10"
     gridtolerance="10"
     guidetolerance="10"
     inkscape:pageopacity="0"
     inkscape:pageshadow="2"
     inkscape:window-width="716"
     inkscape:window-height="405"
     id="namedview1161"
     showgrid="false"
     inkscape:zoom="8.7896253"
     inkscape:cx="86.75"
     inkscape:cy="8.9166668"
     inkscape:window-x="156"
     inkscape:window-y="156"
     inkscape:window-maximized="0"
     inkscape:current-layer="svg1159" />
  <defs
     id="defs1155">
    <pattern
       id="WMFhbasepattern"
       patternUnits="userSpaceOnUse"
       width="6"
       height="6"
       x="0"
       y="0" />
  </defs>
  <path
     style="fill:#added4;fill-rule:evenodd;fill-opacity:1;stroke:none;"
     d="  M 159.5818,0.7957958   L 158.78229,0.95495495   L 157.98278,1.7507508   L 157.34317,2.0690691   L 155.90406,3.978979   L 154.46494,5.8888889   L 153.02583,7.957958   L 151.90652,9.8678679   L 150.4674,11.3003   L 149.6679,11.618619   L 148.86839,11.936937   L 148.06888,11.936937   L 147.42927,11.618619   L 146.46986,11.3003   L 145.67036,10.822823   L 144.55105,9.3903904   L 143.11193,7.4804805   L 140.71341,3.978979   L 139.5941,2.8648649   L 139.11439,2.3873874   L 138.47478,2.0690691   L 137.99508,2.0690691   L 137.19557,2.3873874   L 135.59656,3.024024   L 133.67774,4.4564565   L 132.07872,6.048048   L 128.72079,9.5495495   L 126.64207,11.936937   L 124.40344,9.0720721   L 121.84502,5.5705706   L 120.72571,3.978979   L 119.28659,2.5465465   L 118.16728,1.7507508   L 117.36777,1.2732733   L 116.24846,1.2732733   L 115.76876,1.4324324   L 114.16974,2.5465465   L 112.41082,4.2972973   L 110.3321,6.3663664   L 104.73555,12.573574   L 102.97663,10.027027   L 100.57811,6.5255255   L 98.01968,3.5015015   L 96.900369,2.3873874   L 95.940959,1.7507508   L 94.821648,1.7507508   L 93.542435,1.9099099   L 92.583026,2.5465465   L 91.463715,3.5015015   L 89.544895,5.5705706   L 87.626076,7.7987988   L 86.506765,8.9129129   L 85.387454,9.8678679   L 84.428044,10.345345   L 83.468635,10.504505   L 82.669127,10.345345   L 81.709717,9.5495495   L 79.471095,7.3213213   L 78.191882,5.4114114   L 77.232472,3.8198198   L 76.592866,2.8648649   L 75.793358,2.3873874   L 75.153752,1.9099099   L 74.194342,1.7507508   L 73.075031,1.7507508   L 71.635916,2.3873874   L 70.0369,3.3423423   L 68.277983,4.2972973   L 63.161132,8.1171171   L 60.282903,10.027027   L 59.163592,10.822823   L 58.204182,10.981982   L 57.244772,10.981982   L 56.285363,10.822823   L 55.166052,9.8678679   L 53.726937,8.4354354   L 52.767528,7.3213213   L 52.287823,6.3663664   L 51.328413,4.7747748   L 50.688807,3.978979   L 49.889299,3.5015015   L 47.810578,3.5015015   L 46.531365,3.978979   L 45.412054,4.7747748   L 43.97294,5.5705706   L 42.853629,6.8438438   L 40.455105,9.0720721   L 38.856089,11.3003   L 35.498155,7.4804805   L 33.899139,5.8888889   L 31.98032,4.7747748   L 31.340713,4.2972973   L 30.381304,3.978979   L 28.462485,3.978979   L 27.503075,4.2972973   L 26.383764,4.4564565   L 25.104551,5.0930931   L 23.98524,6.048048   L 22.226322,7.4804805   L 21.107011,8.5945946   L 20.467405,9.3903904   L 19.667897,10.027027   L 19.02829,10.027027   L 18.068881,9.8678679   L 15.03075,7.957958   L 11.193112,5.0930931   L 9.1143911,3.978979   L 8.1549815,3.8198198   L 6.7158672,3.8198198   L 6.0762608,4.2972973   L 4.6371464,5.8888889   L 3.198032,7.957958   L 2.0787208,10.345345   L 1.1193112,12.573574   L 0.6396064,14.483483   L 0.6396064,15.438438   L 0.6396064,15.915916   L 1.1193112,16.075075   L 1.599016,16.393393   L 2.5584256,15.915916   L 3.198032,15.12012   L 3.8376384,14.006006   L 4.3173432,13.051051   L 5.596556,10.822823   L 6.2361624,9.8678679   L 7.0356704,9.0720721   L 8.1549815,8.5945946   L 9.1143911,8.9129129   L 10.233702,9.3903904   L 11.672817,10.027027   L 14.071341,11.618619   L 16.469865,13.369369   L 18.708487,14.483483   L 20.467405,14.642643   L 20.947109,14.642643   L 21.426814,14.483483   L 22.066421,13.846847   L 23.665437,11.459459   L 24.944649,10.345345   L 26.543665,8.9129129   L 27.503075,8.4354354   L 28.462485,8.1171171   L 29.102091,7.957958   L 29.901599,8.1171171   L 31.02091,8.5945946   L 32.140221,9.3903904   L 34.059041,11.618619   L 35.338253,12.891892   L 36.617466,14.006006   L 37.576876,14.324324   L 38.536285,14.483483   L 39.335793,14.483483   L 39.9754,14.324324   L 41.574416,13.369369   L 42.853629,11.936937   L 45.731857,8.5945946   L 47.01107,7.3213213   L 48.929889,5.8888889   L 50.688807,8.5945946   L 51.488315,10.345345   L 52.767528,11.936937   L 54.206642,13.369369   L 55.645756,14.483483   L 57.244772,15.12012   L 58.683887,15.12012   L 60.123001,14.642643   L 61.881919,13.846847   L 64.120541,12.096096   L 66.359164,10.504505   L 70.836408,7.003003   L 72.755228,5.4114114   L 74.194342,4.4564565   L 75.793358,7.3213213   L 78.191882,10.822823   L 79.630996,12.414414   L 81.070111,13.846847   L 82.509225,14.642643   L 83.148831,14.960961   L 83.948339,15.12012   L 84.587946,14.960961   L 85.387454,14.642643   L 86.666667,13.846847   L 88.105781,12.414414   L 89.864699,10.504505   L 92.583026,6.8438438   L 94.821648,4.2972973   L 96.420664,7.3213213   L 98.97909,11.459459   L 100.4182,13.528529   L 101.85732,15.438438   L 103.29643,16.552553   L 103.77614,16.870871   L 104.89545,16.870871   L 105.85486,16.393393   L 107.45387,15.12012   L 109.21279,13.528529   L 110.97171,11.618619   L 114.32964,7.4804805   L 116.88807,4.4564565   L 118.64699,7.3213213   L 120.88561,11.3003   L 122.32472,12.891892   L 123.76384,14.324324   L 125.20295,15.438438   L 125.84256,15.597598   L 127.12177,15.597598   L 127.60148,15.438438   L 129.04059,14.324324   L 132.23862,10.981982   L 135.59656,7.3213213   L 137.99508,4.9339339   L 139.754,7.7987988   L 142.47232,10.981982   L 143.91144,12.573574   L 145.51046,13.846847   L 146.94957,14.642643   L 147.58918,14.960961   L 148.38868,15.12012   L 149.18819,14.960961   L 149.9877,14.642643   L 151.58672,13.846847   L 153.34563,12.414414   L 154.94465,10.822823   L 157.98278,7.003003   L 160.3813,4.2972973   L 164.53875,9.3903904   L 165.81796,10.822823   L 167.25707,11.936937   L 168.37638,12.891892   L 169.33579,13.369369   L 170.4551,13.369369   L 171.89422,12.891892   L 172.37392,12.573574   L 172.69373,12.096096   L 172.37392,11.459459   L 171.89422,10.822823   L 169.49569,8.5945946   L 166.29766,5.0930931   L 164.53875,3.5015015   L 162.93973,2.0690691   L 161.50062,0.95495495   L 161.02091,0.7957958  z "
     id="path1157" />
</svg>
