<?xml version="1.0" encoding="UTF-8" standalone="no"?>
<svg
   xmlns:dc="http://purl.org/dc/elements/1.1/"
   xmlns:cc="http://creativecommons.org/ns#"
   xmlns:rdf="http://www.w3.org/1999/02/22-rdf-syntax-ns#"
   xmlns:svg="http://www.w3.org/2000/svg"
   xmlns="http://www.w3.org/2000/svg"
   xmlns:sodipodi="http://sodipodi.sourceforge.net/DTD/sodipodi-0.dtd"
   xmlns:inkscape="http://www.inkscape.org/namespaces/inkscape"
   version="1.0"
   width="66.542708mm"
   height="7.540625mm"
   id="svg1102"
   sodipodi:docname="separator-diamond.svg"
   inkscape:version="0.92.2 (5c3e80d, 2017-08-06)">
  <metadata
     id="metadata1106">
    <rdf:RDF>
      <cc:Work
         rdf:about="">
        <dc:format>image/svg+xml</dc:format>
        <dc:type
           rdf:resource="http://purl.org/dc/dcmitype/StillImage" />
        <dc:title></dc:title>
      </cc:Work>
    </rdf:RDF>
  </metadata>
  <sodipodi:namedview
     pagecolor="#ffffff"
     bordercolor="#666666"
     borderopacity="1"
     objecttolerance="10"
     gridtolerance="10"
     guidetolerance="10"
     inkscape:pageopacity="0"
     inkscape:pageshadow="2"
     inkscape:window-width="716"
     inkscape:window-height="405"
     id="namedview1104"
     showgrid="false"
     inkscape:zoom="6.0636182"
     inkscape:cx="125.75"
     inkscape:cy="14.25"
     inkscape:window-x="156"
     inkscape:window-y="156"
     inkscape:window-maximized="0"
     inkscape:current-layer="svg1102" />
  <defs
     id="defs1098">
    <pattern
       id="WMFhbasepattern"
       patternUnits="userSpaceOnUse"
       width="6"
       height="6"
       x="0"
       y="0" />
  </defs>
  <path
     style="fill:#7c7f91;fill-rule:evenodd;fill-opacity:1;stroke:none;"
     d="  M 108.94844,5.6026365   L 108.46849,5.9227872   L 107.82856,6.2429379   L 106.06875,8.3239171   L 103.669,10.084746   L 102.54912,11.205273   L 101.58922,11.685499   L 95.349883,12.00565   L 89.110545,12.3258   L 69.752599,12.3258   L 43.995332,11.685499   L 33.116486,11.205273   L 22.557607,10.885122   L 15.998303,10.404896   L 6.239338,10.404896   L 3.0396775,10.725047   L 1.5998303,10.725047   L 1.1198812,10.885122   L 0.79991513,11.525424   L 0.6399321,12.00565   L 0.79991513,12.485876   L 1.1198812,13.126177   L 1.5998303,13.286252   L 3.1996605,13.606403   L 4.7994908,13.926554   L 7.9991513,14.086629   L 14.718438,14.40678   L 27.677063,14.72693   L 62.553363,15.527307   L 75.032039,15.687382   L 93.59007,15.687382   L 99.349459,15.527307   L 101.7492,15.527307   L 102.22915,15.687382   L 104.14895,18.088512   L 105.42881,20.009416   L 106.22873,20.489642   L 107.34861,20.809793   L 107.82856,20.809793   L 108.46849,20.489642   L 108.94844,19.689266   L 108.94844,18.888889   L 108.62847,17.768362   L 107.82856,16.80791   L 107.02864,16.007533   L 105.26883,13.606403   L 107.34861,12.00565   L 109.42839,10.404896   L 110.2283,9.2843691   L 111.02822,8.0037665   L 111.34819,7.5235405   L 111.02822,6.7231638   L 110.70825,6.2429379   L 110.2283,5.6026365   L 108.94844,5.6026365  z    M 125.58668,5.4425612   L 127.98642,7.5235405   L 130.0662,9.6045198   L 132.30596,12.00565   L 133.10588,13.286252   L 133.58583,13.926554   L 133.90579,14.40678   L 133.90579,14.887006   L 133.26586,15.527307   L 131.986,16.487759   L 129.58625,18.888889   L 127.50647,20.969868   L 125.42669,23.210923   L 123.18693,20.969868   L 121.10715,18.888889   L 118.70741,16.487759   L 116.14768,14.40678   L 118.54742,12.485876   L 120.78718,10.084746   L 123.18693,7.6836158   L 125.58668,5.4425612  z    M 141.26501,5.1224105   L 140.78506,5.4425612   L 140.4651,5.9227872   L 140.14513,6.4030132   L 140.4651,7.5235405   L 141.26501,8.4839925   L 142.38489,9.6045198   L 144.14471,11.525424   L 146.0645,14.40678   L 146.22449,14.72693   L 146.0645,14.887006   L 145.42457,15.687382   L 144.46467,16.487759   L 140.4651,20.169492   L 139.98515,21.290019   L 139.66518,21.770245   L 139.66518,22.410546   L 139.98515,22.890772   L 140.4651,23.370998   L 140.94505,23.691149   L 141.58498,24.011299   L 142.38489,23.691149   L 143.18481,23.210923   L 144.46467,21.770245   L 147.0244,19.20904   L 148.14428,17.768362   L 148.62423,17.288136   L 149.26416,16.80791   L 150.86399,16.80791   L 152.30384,16.967985   L 162.38277,16.967985   L 169.58201,16.80791   L 210.85763,16.80791   L 225.73605,16.167608   L 232.61532,16.007533   L 239.81456,15.687382   L 243.1742,15.687382   L 246.69383,15.527307   L 248.45364,15.207156   L 249.25355,14.887006   L 250.05347,14.40678   L 250.6934,14.086629   L 250.6934,13.606403   L 250.6934,12.806026   L 250.37344,12.3258   L 249.89349,12.00565   L 249.09357,11.685499   L 243.97411,11.685499   L 236.93486,12.485876   L 222.37641,13.126177   L 207.65797,13.286252   L 166.8623,13.286252   L 161.10291,13.126177   L 155.34352,13.286252   L 152.14386,13.286252   L 150.86399,13.606403   L 150.06408,13.286252   L 149.42415,13.126177   L 147.82432,10.404896   L 145.74454,8.0037665   L 144.46467,6.7231638   L 142.86484,5.6026365   L 141.74496,5.1224105   L 141.26501,5.1224105  z    M 125.58668,0.64030132   L 124.78676,0.80037665   L 123.5069,1.920904   L 122.22703,3.2015066   L 119.98727,5.9227872   L 117.10757,9.1242938   L 114.22788,12.00565   L 113.74793,12.806026   L 112.94802,13.606403   L 112.94802,14.086629   L 113.108,14.40678   L 113.42797,15.207156   L 114.54785,16.80791   L 115.50774,18.088512   L 117.74751,20.169492   L 119.82729,22.570621   L 122.38701,25.451977   L 123.98684,27.052731   L 125.10673,27.693032   L 125.90664,27.372881   L 127.02652,26.892655   L 128.46637,25.451977   L 131.18608,22.570621   L 134.38574,19.369115   L 137.26544,16.167608   L 137.74539,15.687382   L 138.06535,14.887006   L 137.74539,14.086629   L 137.5854,13.286252   L 136.78549,11.685499   L 135.66561,10.404896   L 133.10588,7.2033898   L 130.0662,4.3220339   L 128.78634,3.0414313   L 127.50647,1.6007533   L 127.02652,0.80037665   L 126.38659,0.64030132   L 125.58668,0.64030132  z   "
     id="path1100" />
</svg>
